<svg xmlns="http://www.w3.org/2000/svg" viewBox="0 0 1178 654">
  <defs>
    <style>
      .cls-1 {
        fill: #a8a8a8;
      }

      .cls-2 {
        fill: none;
        stroke: #636363;
        stroke-miterlimit: 10;
      }

      .cls-3 {
        fill: #ff0;
      }
    </style>
  </defs>
  <title>HackerSticker</title>
  <g id="Layer_1" data-name="Layer 1">
    <g>
      <polygon class="cls-1" points="762.01 277.4 769.29 270.41 769.76 269.96 770.32 270.25 784.69 277.43 783.6 278.11 783.7 267.53 783.7 267.44 783.72 267.37 787.45 253.3 787.56 252.9 787.97 252.9 820.44 253.2 820.21 253.43 820.34 239.32 820.34 239.22 820.44 239.22 831.26 239.32 820.44 239.42 820.54 239.32 820.67 253.43 820.67 253.65 820.44 253.66 787.97 253.96 788.48 253.56 785 267.7 785.02 267.53 785.12 278.11 785.13 279.32 784.02 278.8 769.53 271.88 770.56 271.71 763.41 278.83 762.01 277.4"/>
      <polygon class="cls-1" points="763.62 285.63 793.96 281.17 793.56 281.39 803.85 270.08 803.93 270 804.02 269.97 834.45 259.51 804.3 270.74 804.47 270.63 794.56 282.28 794.41 282.45 794.17 282.5 763.93 287.6 763.62 285.63"/>
      <polygon class="cls-1" points="766.71 292.82 796.03 285.49 796.52 285.37 796.74 285.8 804.51 301.31 803.92 301.17 814.65 293.6 814.71 293.56 814.79 293.56 833.39 293.79 814.79 294.03 814.92 293.98 804.39 301.82 804.02 302.1 803.8 301.68 795.64 286.37 796.35 286.68 767.21 294.76 766.71 292.82"/>
      <polygon class="cls-1" points="770.81 306.49 805.04 315.13 805.66 315.29 805.45 315.88 800.68 329.15 800.51 328.68 814.94 337.43 814.98 337.45 815 337.49 823.44 350.69 814.68 337.7 814.74 337.76 800.11 329.36 799.83 329.2 799.93 328.89 804.37 315.5 804.78 316.24 770.35 308.44 770.81 306.49"/>
      <polygon class="cls-1" points="761.16 327.01 802.57 357.81 760 328.64 761.16 327.01"/>
      <polygon class="cls-1" points="747.67 330.3 771.04 382.02 771.07 382.1 771.07 382.18 770.68 418.94 770.29 382.18 770.32 382.35 745.86 331.15 747.67 330.3"/>
      <polygon class="cls-1" points="731.64 331.84 717.98 350.54 718.11 349.96 721.32 366.74 721.4 367.17 721.03 367.38 701.43 378.72 701.63 378.44 698.89 395.44 698.89 395.47 698.88 395.49 697.34 398.75 698.5 395.33 698.49 395.38 700.83 378.32 700.86 378.13 701.02 378.03 720.42 366.34 720.14 366.98 716.63 350.25 716.57 349.94 716.76 349.67 730.01 330.68 731.64 331.84"/>
      <polygon class="cls-1" points="712.19 319.96 699.88 326.25 699.53 326.43 699.39 326.1 696.28 319.09 700.02 325.78 699.53 325.63 711.2 318.22 712.19 319.96"/>
      <polygon class="cls-1" points="705.69 311.11 697.34 313.37 704.94 309.25 705.69 311.11"/>
      <polygon class="cls-1" points="717.79 328.87 701.59 347.73 716.22 327.63 717.79 328.87"/>
      <polygon class="cls-1" points="705 292.88 702.13 290.87 705.63 290.98 705 292.88"/>
      <polygon class="cls-1" points="707.8 289.45 702.91 283.7 702.85 283.63 702.84 283.6 701.06 279.18 703.53 283.25 703.46 283.15 709.21 288.04 707.8 289.45"/>
      <polygon class="cls-1" points="714.55 279.04 712.29 271.87 712.27 271.81 710.5 263.69 710.56 263.81 706.83 259.46 710.95 263.44 710.99 263.48 711.01 263.56 713.53 271.47 713.51 271.42 716.43 278.35 714.55 279.04"/>
      <polygon class="cls-1" points="730.04 270.24 717.84 254.32 717.71 254.15 717.71 253.96 718.03 238.31 718.05 238.41 713.29 226.57 718.54 238.2 718.56 238.25 718.56 238.31 718.88 253.96 718.75 253.59 731.6 268.99 730.04 270.24"/>
      <polygon class="cls-1" points="741.53 267.3 743.68 258.17 743.69 258.09 743.7 258.07 745.64 253.54 745.65 253.51 745.65 253.51 749.42 246.76 746.28 253.82 746.3 253.79 744.78 258.48 744.81 258.38 743.5 267.67 741.53 267.3"/>
      <polygon class="cls-1" points="751.11 269.96 758.07 241.26 758.05 241.43 758.23 220.88 758.23 220.71 758.32 220.58 771.92 200.15 771.96 200.09 772.03 200.05 805.75 179.8 772.39 200.64 772.5 200.53 759.26 221.19 759.35 220.88 759.53 241.43 759.53 241.51 759.51 241.6 753.05 270.41 751.11 269.96"/>
      <polygon class="cls-1" points="752.97 273.55 759 257.18 759.06 257.03 759.16 256.96 766.68 251.68 766.67 251.69 770.46 248.13 766.9 251.92 766.89 251.93 766.88 251.94 759.7 257.68 759.86 257.46 754.87 274.18 752.97 273.55"/>
      <path class="cls-1" d="M734.82,269.76l-3.74-26.24,0-.1v-.1l2.18-14.94v.1l-1.37-24.37c-.12-2-.21-4.06-.36-6.09l-.59-6.07-1.17-12.15,1.44,12.12.72,6.07c.2,2,.33,4,.5,6.08l1.91,24.34v.11l-1.84,15v-.2l4.32,26.15Z"/>
      <polygon class="cls-1" points="740.61 334.54 738.99 352.28 738.98 352.37 738.96 352.43 735.65 361.81 735.64 361.84 735.63 361.85 728.17 376.43 734.97 361.53 734.95 361.57 737.83 352.06 737.8 352.2 738.61 334.4 740.61 334.54"/>
    </g>
    <g>
      <polygon class="cls-1" points="1054.29 277.4 1061.57 270.41 1062.04 269.96 1062.61 270.25 1076.97 277.43 1075.88 278.11 1075.98 267.53 1075.98 267.44 1076 267.37 1079.73 253.3 1079.84 252.9 1080.25 252.9 1112.72 253.2 1112.49 253.43 1112.62 239.32 1112.62 239.22 1112.72 239.22 1123.54 239.32 1112.72 239.42 1112.82 239.32 1112.95 253.43 1112.95 253.65 1112.72 253.66 1080.25 253.96 1080.76 253.56 1077.28 267.7 1077.3 267.53 1077.4 278.11 1077.41 279.32 1076.31 278.8 1061.81 271.88 1062.84 271.71 1055.69 278.83 1054.29 277.4"/>
      <polygon class="cls-1" points="1055.9 285.63 1086.24 281.17 1085.84 281.39 1096.13 270.08 1096.21 270 1096.3 269.97 1126.73 259.51 1096.58 270.74 1096.75 270.63 1086.85 282.28 1086.7 282.45 1086.45 282.5 1056.21 287.6 1055.9 285.63"/>
      <polygon class="cls-1" points="1058.99 292.82 1088.31 285.49 1088.8 285.37 1089.02 285.8 1096.8 301.31 1096.21 301.17 1106.93 293.6 1107 293.56 1107.07 293.56 1125.67 293.79 1107.07 294.03 1107.21 293.98 1096.68 301.82 1096.31 302.1 1096.09 301.68 1087.92 286.37 1088.63 286.68 1059.5 294.76 1058.99 292.82"/>
      <polygon class="cls-1" points="1063.1 306.49 1097.32 315.13 1097.94 315.29 1097.73 315.88 1092.97 329.15 1092.79 328.68 1107.22 337.43 1107.26 337.45 1107.28 337.49 1115.72 350.69 1106.96 337.7 1107.02 337.76 1092.39 329.36 1092.11 329.2 1092.21 328.89 1096.65 315.5 1097.06 316.24 1062.63 308.44 1063.1 306.49"/>
      <polygon class="cls-1" points="1053.45 327.01 1094.85 357.81 1052.28 328.64 1053.45 327.01"/>
      <polygon class="cls-1" points="1039.95 330.3 1063.32 382.02 1063.36 382.1 1063.36 382.18 1062.96 418.94 1062.57 382.18 1062.61 382.35 1038.14 331.15 1039.95 330.3"/>
      <polygon class="cls-1" points="1023.92 331.84 1010.26 350.54 1010.39 349.96 1013.6 366.74 1013.64 366.98 1013.53 367.17 1006.61 378.58 1006.66 378.44 1003.93 395.44 1003.91 395.54 1003.83 395.59 992.81 401.94 1003.62 395.24 1003.53 395.38 1005.87 378.32 1005.88 378.25 1005.92 378.17 1012.49 366.56 1012.42 366.98 1008.92 350.25 1008.85 349.94 1009.04 349.67 1022.29 330.68 1023.92 331.84"/>
      <polygon class="cls-1" points="1004.69 319.79 996.53 327.29 996.09 327.69 995.87 327.19 992.81 320.15 996.61 326.82 995.95 326.72 1003.26 318.39 1004.69 319.79"/>
      <polygon class="cls-1" points="998.06 311.06 992.81 312.66 997.14 309.29 998.06 311.06"/>
      <polygon class="cls-1" points="1010.07 328.87 993.88 347.73 1008.5 327.63 1010.07 328.87"/>
      <polygon class="cls-1" points="997.28 292.88 994.41 290.87 997.91 290.98 997.28 292.88"/>
      <polygon class="cls-1" points="1000.08 289.45 995.2 283.7 995.14 283.63 995.13 283.6 993.35 279.18 995.82 283.25 995.75 283.15 1001.49 288.04 1000.08 289.45"/>
      <polygon class="cls-1" points="1006.84 279.04 1004.57 271.87 1004.55 271.81 1002.78 263.69 1002.85 263.81 999.11 259.46 1003.23 263.44 1003.27 263.48 1003.3 263.56 1005.81 271.47 1005.8 271.42 1008.71 278.35 1006.84 279.04"/>
      <polygon class="cls-1" points="1022.32 270.24 1010.12 254.32 1009.99 254.15 1009.99 253.96 1010.32 238.31 1010.34 238.41 1005.57 226.57 1010.82 238.2 1010.84 238.25 1010.84 238.31 1011.16 253.96 1011.04 253.59 1023.89 268.99 1022.32 270.24"/>
      <polygon class="cls-1" points="1033.81 267.3 1035.96 258.17 1035.98 258.09 1035.99 258.07 1037.92 253.54 1037.94 253.51 1037.94 253.51 1041.7 246.76 1038.57 253.82 1038.58 253.79 1037.06 258.48 1037.09 258.38 1035.78 267.67 1033.81 267.3"/>
      <polygon class="cls-1" points="1043.39 269.96 1050.35 241.26 1050.33 241.43 1050.51 220.88 1050.51 220.71 1050.6 220.58 1064.2 200.15 1064.24 200.09 1064.31 200.05 1098.04 179.8 1064.67 200.64 1064.78 200.53 1051.54 221.19 1051.63 220.88 1051.81 241.43 1051.81 241.51 1051.79 241.6 1045.34 270.41 1043.39 269.96"/>
      <polygon class="cls-1" points="1045.25 273.55 1051.29 257.18 1051.34 257.03 1051.44 256.96 1058.97 251.68 1058.95 251.69 1062.74 248.13 1059.18 251.92 1059.18 251.93 1059.16 251.94 1051.98 257.68 1052.14 257.46 1047.15 274.18 1045.25 273.55"/>
      <path class="cls-1" d="M1027.1,269.76l-3.74-26.24,0-.1,0-.1,2.18-14.94v.1l-1.37-24.37c-.12-2-.2-4.06-.36-6.09l-.59-6.07L1022,179.8l1.44,12.12.72,6.07c.2,2,.33,4,.5,6.08l1.91,24.34v.11l-1.85,15v-.2l4.32,26.15Z"/>
      <polygon class="cls-1" points="1032.89 334.54 1031.28 352.28 1031.27 352.37 1031.25 352.43 1027.93 361.81 1027.92 361.84 1027.92 361.85 1020.45 376.43 1027.25 361.53 1027.23 361.57 1030.11 352.06 1030.09 352.2 1030.9 334.4 1032.89 334.54"/>
    </g>
    <g>
      <polygon class="cls-1" points="447.41 277.4 454.69 270.41 455.16 269.96 455.72 270.25 470.09 277.43 469 278.11 469.09 267.53 469.09 267.44 469.11 267.37 472.85 253.3 472.96 252.9 473.36 252.9 505.83 253.2 505.61 253.43 505.74 239.32 505.74 239.22 505.83 239.22 516.66 239.32 505.83 239.42 505.94 239.32 506.06 253.43 506.07 253.65 505.83 253.66 473.36 253.96 473.87 253.56 470.4 267.7 470.42 267.53 470.51 278.11 470.52 279.32 469.42 278.8 454.92 271.88 455.96 271.71 448.81 278.83 447.41 277.4"/>
      <polygon class="cls-1" points="449.01 285.63 479.36 281.17 478.96 281.39 489.25 270.08 489.32 270 489.42 269.97 519.85 259.51 489.69 270.74 489.87 270.63 479.96 282.28 479.81 282.45 479.56 282.5 449.32 287.6 449.01 285.63"/>
      <polygon class="cls-1" points="452.1 292.82 481.43 285.49 481.92 285.37 482.13 285.8 489.91 301.31 489.32 301.17 500.05 293.6 500.11 293.56 500.19 293.56 518.78 293.79 500.19 294.03 500.32 293.98 489.79 301.82 489.42 302.1 489.2 301.68 481.04 286.37 481.74 286.68 452.61 294.76 452.1 292.82"/>
      <polygon class="cls-1" points="456.21 306.49 490.44 315.13 491.05 315.29 490.85 315.88 486.08 329.15 485.91 328.68 500.33 337.43 500.37 337.45 500.4 337.49 508.83 350.69 500.08 337.7 500.14 337.76 485.5 329.36 485.23 329.2 485.33 328.89 489.77 315.5 490.17 316.24 455.75 308.44 456.21 306.49"/>
      <polygon class="cls-1" points="446.56 327.01 487.96 357.81 445.4 328.64 446.56 327.01"/>
      <polygon class="cls-1" points="433.07 330.3 456.43 382.02 456.47 382.1 456.47 382.18 456.08 418.94 455.68 382.18 455.72 382.35 431.26 331.15 433.07 330.3"/>
      <polygon class="cls-1" points="417.04 331.84 403.38 350.54 403.51 349.96 406.71 366.74 406.79 367.17 406.43 367.38 386.83 378.72 387.02 378.44 384.29 395.44 384.27 395.54 384.19 395.59 373.18 401.94 383.98 395.24 383.89 395.38 386.23 378.32 386.25 378.13 386.42 378.03 405.82 366.34 405.53 366.98 402.03 350.25 401.97 349.94 402.16 349.67 415.41 330.68 417.04 331.84"/>
      <polygon class="cls-1" points="397.59 319.96 385.28 326.25 384.93 326.43 384.78 326.1 381.68 319.09 385.42 325.78 384.93 325.63 396.59 318.22 397.59 319.96"/>
      <polygon class="cls-1" points="391.08 311.11 382.74 313.37 390.34 309.25 391.08 311.11"/>
      <polygon class="cls-1" points="403.19 328.87 386.99 347.73 401.62 327.63 403.19 328.87"/>
      <polygon class="cls-1" points="390.4 292.88 387.52 290.87 391.03 290.98 390.4 292.88"/>
      <polygon class="cls-1" points="393.19 289.45 388.31 283.7 388.25 283.63 388.24 283.6 386.46 279.18 388.93 283.25 388.86 283.15 394.61 288.04 393.19 289.45"/>
      <polygon class="cls-1" points="399.95 279.04 397.69 271.87 397.67 271.81 395.9 263.69 395.96 263.81 392.23 259.46 396.35 263.44 396.39 263.48 396.41 263.56 398.93 271.47 398.91 271.42 401.83 278.35 399.95 279.04"/>
      <polygon class="cls-1" points="415.44 270.24 403.24 254.32 403.1 254.15 403.11 253.96 403.43 238.31 403.45 238.41 398.68 226.57 403.94 238.2 403.96 238.25 403.96 238.31 404.28 253.96 404.15 253.59 417 268.99 415.44 270.24"/>
      <polygon class="cls-1" points="426.93 267.3 429.07 258.17 429.09 258.09 429.1 258.07 431.04 253.54 431.05 253.51 431.05 253.51 434.82 246.76 431.68 253.82 431.69 253.79 430.18 258.48 430.2 258.38 428.89 267.67 426.93 267.3"/>
      <polygon class="cls-1" points="436.5 269.96 443.46 241.26 443.45 241.43 443.63 220.88 443.63 220.71 443.72 220.58 457.32 200.15 457.36 200.09 457.43 200.05 491.15 179.8 457.79 200.64 457.89 200.53 444.66 221.19 444.75 220.88 444.93 241.43 444.93 241.51 444.91 241.6 438.45 270.41 436.5 269.96"/>
      <polygon class="cls-1" points="438.37 273.55 444.4 257.18 444.45 257.03 444.56 256.96 452.08 251.68 452.06 251.69 455.86 248.13 452.3 251.92 452.29 251.93 452.28 251.94 445.1 257.68 445.26 257.46 440.26 274.18 438.37 273.55"/>
      <path class="cls-1" d="M420.21,269.76l-3.74-26.24v-.2l2.18-14.94v.1l-1.37-24.37c-.12-2-.21-4.06-.36-6.09l-.59-6.07-1.17-12.15,1.44,12.12.72,6.07c.2,2,.33,4,.5,6.08l1.91,24.34v.11l-1.85,15v-.2l4.32,26.15Z"/>
      <polygon class="cls-1" points="426.01 334.54 424.39 352.28 424.38 352.37 424.36 352.43 421.05 361.81 421.04 361.84 421.03 361.85 413.56 376.43 420.36 361.53 420.35 361.57 423.23 352.06 423.2 352.2 424.01 334.4 426.01 334.54"/>
    </g>
    <path class="cls-2" d="M1262.82,504.5h-182c-42.32,0-88.29-36.7-88.29-82V158.45c0-45.27,46-82,88.29-82h182c42.32,0,88.29,36.69,88.29,82V422.54C1351.11,467.8,1305.14,504.5,1262.82,504.5Z"/>
    <g id="Layer_2" data-name="Layer 2">
      <g id="refined">
        <path class="cls-2" d="M379.82,338.49H656.1"/>
        <path class="cls-2" d="M616.7,504a.8.8,0,0,1-.53.19"/>
        <path class="cls-2" d="M635.18,81.66l-236,76.68L374.78,387.79s-13,61.81,42,116.12H616.7s49.08-39.65,42.38-126.33S635.18,81.66,635.18,81.66Z"/>
        <line class="cls-2" x1="400.93" y1="484.58" x2="633.9" y2="484.58"/>
      </g>
    </g>
    <g>
      <path class="cls-2" d="M704.63,75.64H955a7,7,0,0,1,7,7V480.5a23.64,23.64,0,0,1-23.64,23.64h-217a23.64,23.64,0,0,1-23.64-23.64V82.62a7,7,0,0,1,7-7Z"/>
      <path class="cls-2" d="M962,84.24v0H697.65v0a8.58,8.58,0,0,1,8.59-8.59H953.37A8.58,8.58,0,0,1,962,84.24Z"/>
      <path class="cls-2" d="M962,84.24v0H697.65v0a8.58,8.58,0,0,1,8.59-8.59H953.37A8.58,8.58,0,0,1,962,84.24Z"/>
    </g>
    <circle class="cls-3" cx="423.9" cy="301.26" r="36.43"/>
    <circle class="cls-3" cx="733.96" cy="301.26" r="36.43"/>
    <circle class="cls-3" cx="1028.64" cy="301.26" r="36.43"/>
    <path class="cls-3" d="M334.53,283.49c-65.85-1.78-240,52.06-240,146.26,0,40.73,29.44,45,66.46,34.3,29.47-8.49,161.32-152.65,201.2-175.3,4.37-2.49,2.13-4.46,2.13-4.46Z"/>
    <path class="cls-3" d="M45.19,376.73a39.77,39.77,0,0,1-13.09,5.69c-5.1,1.13-10.25,1.23-15.17-1-6.37-2.84-10.37-7.61-11.46-14.58s1.13-13.09,5.8-18.35a36,36,0,0,1,10.3-7.82,77.11,77.11,0,0,1,22.1-7.36,77.25,77.25,0,0,1,14.54-1.45c3.55,0,7.1.28,10.64.59a71.69,71.69,0,0,1,15.43,3.42,72.7,72.7,0,0,1,14,6.54c1.47.85,2.88,1.81,4.31,2.72l-.12.37a11.84,11.84,0,0,0-1.33.06c-1.26.18-2.51.4-3.77.58-.89.12-1.79.11-2.67.27-5.58,1-10.61,3.41-15.49,6.23a142.61,142.61,0,0,0-15.82,10.88c-2.22,1.73-4.47,3.42-6.79,5Z"/>
    <path class="cls-3" d="M104.89,316.15a20.56,20.56,0,0,1-7.33.45,12.22,12.22,0,0,1-7.17-3.12,9.44,9.44,0,0,1-3-9.06,11.08,11.08,0,0,1,6-7.86,18.42,18.42,0,0,1,6.35-2,43.91,43.91,0,0,1,19.27,2.16c1.71.62,3.38,1.38,5,2.15a36.69,36.69,0,0,1,6.86,4.36,37.13,37.13,0,0,1,5.65,5.63c.56.66,1.07,1.38,1.61,2.07l-.12.15c-.22-.07-.43-.15-.66-.2-.64-.14-1.28-.24-1.92-.38-.45-.1-.89-.26-1.34-.34a25,25,0,0,0-8.58.3A73,73,0,0,0,116,313c-1.38.44-2.77.87-4.17,1.23Z"/>
  </g>
</svg>
