<svg xmlns="http://www.w3.org/2000/svg" viewBox="0 0 1178 654">
  <defs>
    <style>
      .cls-1 {
        fill: #a8a8a8;
      }

      .cls-2 {
        fill: none;
        stroke: #636363;
        stroke-miterlimit: 10;
        stroke-width: 4px;
      }

      .cls-3 {
        fill: #ff0;
      }
    </style>
  </defs>
  <title>Artboard 1</title>
  <g id="Layer_1" data-name="Layer 1">
    <g>
      <polygon class="cls-1" points="760.96 276.33 768.34 269.44 769.55 268.31 770.92 269.02 785.19 276.41 782.46 278.11 782.7 267.53 782.71 267.29 782.75 267.12 786.69 253.1 786.97 252.08 787.97 252.11 820.44 252.85 819.86 253.43 820.19 239.32 820.19 239.07 820.44 239.07 831.26 239.32 820.44 239.57 820.69 239.32 821.01 253.43 821.02 253.99 820.44 254 787.97 254.75 789.24 253.75 785.96 267.94 786.01 267.53 786.25 278.11 786.32 281.11 783.52 279.82 768.93 273.1 771.51 272.68 764.46 279.9 760.96 276.33"/>
      <polygon class="cls-1" points="763.38 284.15 793.8 280.18 792.81 280.73 803.39 269.68 803.6 269.46 803.81 269.39 834.45 259.51 804.5 271.32 804.93 271.03 795.32 282.94 794.97 283.37 794.32 283.49 764.16 289.09 763.38 284.15"/>
      <polygon class="cls-1" points="766.32 291.37 795.79 284.59 797.05 284.3 797.56 285.38 805.05 301.04 803.57 300.69 814.44 293.32 814.62 293.2 814.79 293.2 833.39 293.79 814.79 294.38 815.13 294.27 804.75 302.31 803.85 303 803.27 301.96 794.81 286.8 796.58 287.58 767.6 296.21 766.32 291.37"/>
      <polygon class="cls-1" points="771.16 305.03 805.24 314.31 806.79 314.73 806.25 316.15 801.25 329.34 800.81 328.16 815.08 337.18 815.19 337.25 815.24 337.33 823.44 350.69 814.44 337.86 814.6 338 799.8 329.87 799.12 329.5 799.37 328.69 803.56 315.23 804.58 317.07 770 309.89 771.16 305.03"/>
      <polygon class="cls-1" points="762.04 325.79 802.57 357.81 759.13 329.86 762.04 325.79"/>
      <polygon class="cls-1" points="749.03 329.67 771.57 381.77 771.67 381.99 771.66 382.18 770.68 418.94 769.7 382.18 769.79 382.6 744.5 331.78 749.03 329.67"/>
      <polygon class="cls-1" points="732.86 332.71 718.9 351.19 719.21 349.74 722.2 366.57 722.39 367.65 721.49 368.15 701.74 379.24 702.22 378.52 699.19 395.49 699.18 395.57 699.16 395.6 697.34 398.75 698.22 395.22 698.19 395.34 700.24 378.23 700.29 377.78 700.72 377.51 719.96 365.57 719.25 367.16 715.53 350.47 715.36 349.73 715.84 349.01 728.79 329.8 732.86 332.71"/>
      <polygon class="cls-1" points="712.93 321.26 700.15 326.72 699.19 327.12 698.91 326.34 696.28 319.09 700.5 325.54 699.26 325.17 710.45 316.92 712.93 321.26"/>
      <polygon class="cls-1" points="706.24 312.5 697.34 313.37 704.39 307.86 706.24 312.5"/>
      <polygon class="cls-1" points="718.97 329.8 701.59 347.73 715.04 326.69 718.97 329.8"/>
      <polygon class="cls-1" points="704.52 294.3 702.13 290.87 706.11 289.56 704.52 294.3"/>
      <polygon class="cls-1" points="706.74 290.51 702.5 284.11 702.32 283.86 701.06 279.18 704.05 283 703.87 282.74 710.27 286.98 706.74 290.51"/>
      <polygon class="cls-1" points="713.15 279.56 711.37 272.2 711.33 272.06 710.12 263.8 710.27 264.08 706.83 259.46 711.24 263.17 711.31 263.23 711.4 263.45 714.47 271.22 714.43 271.08 717.84 277.83 713.15 279.56"/>
      <polygon class="cls-1" points="728.87 271.17 717.15 254.87 716.81 254.4 716.83 253.96 717.64 238.31 717.69 238.56 713.29 226.57 718.9 238.05 718.95 238.14 718.96 238.31 719.76 253.96 719.44 253.04 732.77 268.05 728.87 271.17"/>
      <polygon class="cls-1" points="740.06 267.02 742.83 258.01 742.9 257.77 745.15 253.36 745.18 253.28 749.42 246.76 746.75 254.06 746.79 253.98 745.59 258.78 745.65 258.54 744.97 267.95 740.06 267.02"/>
      <polygon class="cls-1" points="749.64 269.62 756.99 241.01 756.94 241.43 757.39 220.88 757.4 220.44 757.62 220.12 771.49 199.87 771.61 199.69 771.76 199.61 805.75 179.8 772.66 201.08 772.93 200.81 759.96 221.65 760.19 220.88 760.64 241.43 760.64 241.6 760.59 241.85 754.51 270.75 749.64 269.62"/>
      <polygon class="cls-1" points="751.55 273.07 758.36 256.96 758.53 256.56 758.75 256.42 766.54 251.48 766.49 251.52 770.46 248.13 767.07 252.1 767.03 252.13 760.11 258.23 760.5 257.68 756.29 274.65 751.55 273.07"/>
      <path class="cls-1" d="M733.33,270l-3.3-26.3,0-.31,0-.2,2.43-14.91v.27l-1-24.39c-.09-2-.14-4.07-.26-6.1l-.49-6.08-1-12.17,1.64,12.1.82,6.06c.24,2,.4,4,.6,6.08l2.32,24.32v.1l0,.17-1.6,15v-.5l4.76,26.08Z"/>
      <polygon class="cls-1" points="742.11 334.64 739.88 352.34 739.85 352.61 739.81 352.71 736.18 361.98 736.14 362.09 736.13 362.1 728.17 376.43 734.47 361.29 734.42 361.4 736.98 351.78 736.91 352.14 737.12 334.3 742.11 334.64"/>
    </g>
    <g>
      <polygon class="cls-1" points="1053.24 276.33 1060.62 269.44 1061.83 268.31 1063.2 269.02 1077.47 276.41 1074.74 278.11 1074.98 267.53 1074.99 267.29 1075.04 267.12 1078.97 253.1 1079.25 252.08 1080.25 252.11 1112.72 252.85 1112.15 253.43 1112.47 239.32 1112.48 239.07 1112.72 239.07 1123.54 239.32 1112.72 239.57 1112.97 239.32 1113.29 253.43 1113.31 253.99 1112.72 254 1080.25 254.75 1081.53 253.75 1078.24 267.94 1078.29 267.53 1078.54 278.11 1078.61 281.11 1075.81 279.82 1061.21 273.1 1063.79 272.68 1056.74 279.9 1053.24 276.33"/>
      <polygon class="cls-1" points="1055.66 284.15 1086.08 280.18 1085.09 280.73 1095.67 269.68 1095.88 269.46 1096.1 269.39 1126.73 259.51 1096.79 271.32 1097.21 271.03 1087.6 282.94 1087.26 283.37 1086.61 283.49 1056.44 289.09 1055.66 284.15"/>
      <polygon class="cls-1" points="1058.61 291.37 1088.08 284.59 1089.33 284.3 1089.84 285.38 1097.33 301.04 1095.85 300.69 1106.73 293.32 1106.9 293.2 1107.07 293.2 1125.67 293.79 1107.07 294.38 1107.41 294.27 1097.03 302.31 1096.13 303 1095.55 301.96 1087.1 286.8 1088.87 287.58 1059.88 296.21 1058.61 291.37"/>
      <polygon class="cls-1" points="1063.44 305.03 1097.52 314.31 1099.08 314.73 1098.54 316.15 1093.53 329.34 1093.1 328.16 1107.36 337.18 1107.47 337.25 1107.52 337.33 1115.72 350.69 1106.72 337.86 1106.88 338 1092.09 329.87 1091.4 329.5 1091.65 328.69 1095.85 315.23 1096.86 317.07 1062.28 309.89 1063.44 305.03"/>
      <polygon class="cls-1" points="1054.32 325.79 1094.85 357.81 1051.41 329.86 1054.32 325.79"/>
      <polygon class="cls-1" points="1041.32 329.67 1063.85 381.77 1063.95 381.99 1063.94 382.18 1062.96 418.94 1061.98 382.18 1062.07 382.6 1036.78 331.78 1041.32 329.67"/>
      <polygon class="cls-1" points="1025.14 332.71 1011.18 351.19 1011.5 349.74 1014.48 366.57 1014.59 367.17 1014.3 367.62 1007.13 378.88 1007.26 378.52 1004.23 395.49 1004.18 395.74 1003.99 395.85 992.81 401.94 1003.47 394.98 1003.23 395.34 1005.27 378.23 1005.29 378.07 1005.4 377.87 1011.71 366.1 1011.53 367.16 1007.81 350.47 1007.64 349.73 1008.13 349.01 1021.07 329.8 1025.14 332.71"/>
      <polygon class="cls-1" points="1005.76 320.84 996.97 327.72 995.74 328.68 995.32 327.46 992.81 320.15 997.15 326.55 995.51 326.29 1002.19 317.35 1005.76 320.84"/>
      <polygon class="cls-1" points="998.75 312.4 992.81 312.66 996.45 307.96 998.75 312.4"/>
      <polygon class="cls-1" points="1011.25 329.8 993.88 347.73 1007.33 326.69 1011.25 329.8"/>
      <polygon class="cls-1" points="996.81 294.3 994.41 290.87 998.39 289.56 996.81 294.3"/>
      <polygon class="cls-1" points="999.02 290.51 994.79 284.11 994.61 283.86 993.35 279.18 996.34 283 996.16 282.74 1002.55 286.98 999.02 290.51"/>
      <polygon class="cls-1" points="1005.43 279.56 1003.66 272.2 1003.61 272.06 1002.4 263.8 1002.56 264.08 999.11 259.46 1003.52 263.17 1003.59 263.23 1003.68 263.45 1006.76 271.22 1006.71 271.08 1010.12 277.83 1005.43 279.56"/>
      <polygon class="cls-1" points="1021.15 271.17 1009.43 254.87 1009.09 254.4 1009.11 253.96 1009.92 238.31 1009.97 238.56 1005.57 226.57 1011.18 238.05 1011.23 238.14 1011.24 238.31 1012.04 253.96 1011.72 253.04 1025.06 268.05 1021.15 271.17"/>
      <polygon class="cls-1" points="1032.34 267.02 1035.11 258.01 1035.18 257.77 1037.43 253.36 1037.47 253.28 1041.7 246.76 1039.04 254.06 1039.07 253.98 1037.87 258.78 1037.93 258.54 1037.25 267.95 1032.34 267.02"/>
      <polygon class="cls-1" points="1041.93 269.62 1049.27 241.01 1049.22 241.43 1049.67 220.88 1049.68 220.44 1049.9 220.12 1063.77 199.87 1063.89 199.69 1064.04 199.61 1098.04 179.8 1064.94 201.08 1065.21 200.81 1052.24 221.65 1052.47 220.88 1052.92 241.43 1052.93 241.6 1052.88 241.85 1046.8 270.75 1041.93 269.62"/>
      <polygon class="cls-1" points="1043.83 273.07 1050.64 256.96 1050.81 256.56 1051.04 256.42 1058.82 251.48 1058.78 251.52 1062.74 248.13 1059.35 252.1 1059.31 252.13 1052.39 258.23 1052.79 257.68 1048.57 274.65 1043.83 273.07"/>
      <path class="cls-1" d="M1025.62,270l-3.31-26.3,0-.31,0-.2,2.42-14.91v.27l-1-24.39c-.09-2-.14-4.07-.26-6.1L1023,192l-1-12.17,1.65,12.1.82,6.06c.23,2,.39,4,.6,6.08l2.31,24.32v.1l0,.17-1.6,15v-.5l4.76,26.08Z"/>
      <polygon class="cls-1" points="1034.39 334.64 1032.17 352.34 1032.13 352.61 1032.1 352.71 1028.46 361.98 1028.42 362.09 1028.42 362.1 1020.45 376.43 1026.75 361.29 1026.7 361.4 1029.26 351.78 1029.19 352.14 1029.4 334.3 1034.39 334.64"/>
    </g>
    <g>
      <polygon class="cls-1" points="446.36 276.33 453.74 269.44 454.94 268.31 456.32 269.02 470.59 276.41 467.86 278.11 468.1 267.53 468.11 267.29 468.15 267.12 472.08 253.1 472.37 252.08 473.36 252.11 505.83 252.85 505.26 253.43 505.59 239.32 505.59 239.07 505.83 239.07 516.66 239.32 505.83 239.57 506.08 239.32 506.41 253.43 506.42 253.99 505.83 254 473.36 254.75 474.64 253.75 471.36 267.94 471.41 267.53 471.65 278.11 471.72 281.11 468.92 279.82 454.33 273.1 456.91 272.68 449.85 279.9 446.36 276.33"/>
      <polygon class="cls-1" points="448.78 284.15 479.2 280.18 478.2 280.73 488.79 269.68 489 269.46 489.21 269.39 519.85 259.51 489.9 271.32 490.33 271.03 480.71 282.94 480.37 283.37 479.72 283.49 449.56 289.09 448.78 284.15"/>
      <polygon class="cls-1" points="451.72 291.37 481.19 284.59 482.45 284.3 482.96 285.38 490.44 301.04 488.97 300.69 499.84 293.32 500.01 293.2 500.19 293.2 518.78 293.79 500.19 294.38 500.53 294.27 490.14 302.31 489.25 303 488.67 301.96 480.21 286.8 481.98 287.58 453 296.21 451.72 291.37"/>
      <polygon class="cls-1" points="456.56 305.03 490.64 314.31 492.19 314.73 491.65 316.15 486.64 329.34 486.21 328.16 500.48 337.18 500.59 337.25 500.64 337.33 508.83 350.69 499.84 337.86 499.99 338 485.2 329.87 484.52 329.5 484.77 328.69 488.96 315.23 489.98 317.07 455.39 309.89 456.56 305.03"/>
      <polygon class="cls-1" points="447.43 325.79 487.96 357.81 444.53 329.86 447.43 325.79"/>
      <polygon class="cls-1" points="434.43 329.67 456.97 381.77 457.06 381.99 457.06 382.18 456.08 418.94 455.09 382.18 455.19 382.6 429.9 331.78 434.43 329.67"/>
      <polygon class="cls-1" points="418.25 332.71 404.3 351.19 404.61 349.74 407.6 366.57 407.79 367.65 406.89 368.15 387.14 379.24 387.62 378.52 384.59 395.49 384.55 395.74 384.35 395.85 373.18 401.94 383.83 394.98 383.59 395.34 385.63 378.23 385.69 377.78 386.12 377.51 405.36 365.57 404.65 367.16 400.93 350.47 400.76 349.73 401.24 349.01 414.19 329.8 418.25 332.71"/>
      <polygon class="cls-1" points="398.33 321.26 385.55 326.72 384.59 327.12 384.31 326.34 381.68 319.09 385.9 325.54 384.66 325.17 395.85 316.92 398.33 321.26"/>
      <polygon class="cls-1" points="391.64 312.5 382.74 313.37 389.78 307.86 391.64 312.5"/>
      <polygon class="cls-1" points="404.37 329.8 386.99 347.73 400.44 326.69 404.37 329.8"/>
      <polygon class="cls-1" points="389.92 294.3 387.52 290.87 391.5 289.56 389.92 294.3"/>
      <polygon class="cls-1" points="392.13 290.51 387.9 284.11 387.72 283.86 386.46 279.18 389.45 283 389.27 282.74 395.67 286.98 392.13 290.51"/>
      <polygon class="cls-1" points="398.54 279.56 396.77 272.2 396.73 272.06 395.51 263.8 395.67 264.08 392.23 259.46 396.64 263.17 396.71 263.23 396.8 263.45 399.87 271.22 399.83 271.08 403.24 277.83 398.54 279.56"/>
      <polygon class="cls-1" points="414.27 271.17 402.55 254.87 402.21 254.4 402.23 253.96 403.04 238.31 403.09 238.56 398.68 226.57 404.3 238.05 404.34 238.14 404.35 238.31 405.16 253.96 404.84 253.04 418.17 268.05 414.27 271.17"/>
      <polygon class="cls-1" points="425.45 267.02 428.23 258.01 428.3 257.77 430.55 253.36 430.58 253.28 434.82 246.76 432.15 254.06 432.19 253.98 430.98 258.78 431.05 258.54 430.37 267.95 425.45 267.02"/>
      <polygon class="cls-1" points="435.04 269.62 442.38 241.01 442.33 241.43 442.79 220.88 442.8 220.44 443.01 220.12 456.88 199.87 457 199.69 457.15 199.61 491.15 179.8 458.06 201.08 458.33 200.81 445.36 221.65 445.59 220.88 446.04 241.43 446.04 241.6 445.99 241.85 439.91 270.75 435.04 269.62"/>
      <polygon class="cls-1" points="436.94 273.07 443.76 256.96 443.93 256.56 444.15 256.42 451.94 251.48 451.89 251.52 455.86 248.13 452.47 252.1 452.43 252.13 445.51 258.23 445.9 257.68 441.69 274.65 436.94 273.07"/>
      <path class="cls-1" d="M418.73,270l-3.3-26.3,0-.31,0-.2,2.43-14.91v.27l-1-24.39c-.09-2-.14-4.07-.27-6.1l-.48-6.08-1-12.17,1.64,12.1.82,6.06c.24,2,.4,4,.6,6.08l2.31,24.32v.27l-1.61,15v-.5l4.75,26.08Z"/>
      <polygon class="cls-1" points="427.5 334.64 425.28 352.34 425.25 352.61 425.21 352.71 421.58 361.98 421.54 362.09 421.53 362.1 413.56 376.43 419.86 361.29 419.82 361.4 422.38 351.78 422.31 352.14 422.51 334.3 427.5 334.64"/>
    </g>
    <path class="cls-2" d="M1262.82,504.5h-182c-42.32,0-88.29-36.7-88.29-82V158.45c0-45.27,46-82,88.29-82h182c42.32,0,88.29,36.69,88.29,82V422.54C1351.11,467.8,1305.14,504.5,1262.82,504.5Z"/>
    <g id="Layer_2" data-name="Layer 2">
      <g id="refined">
        <path class="cls-2" d="M379.82,338.49H656.1"/>
        <path class="cls-2" d="M616.7,504a.8.8,0,0,1-.53.19"/>
        <path class="cls-2" d="M635.18,81.66l-236,76.68L374.78,387.79s-13,61.81,42,116.12H616.7s49.08-39.65,42.38-126.33S635.18,81.66,635.18,81.66Z"/>
        <line class="cls-2" x1="400.93" y1="484.58" x2="633.9" y2="484.58"/>
      </g>
    </g>
    <g>
      <path class="cls-2" d="M704.63,75.64H955a7,7,0,0,1,7,7V480.5a23.64,23.64,0,0,1-23.64,23.64h-217a23.64,23.64,0,0,1-23.64-23.64V82.62A7,7,0,0,1,704.63,75.64Z"/>
      <path class="cls-2" d="M962,84.24v0H697.65v0a8.58,8.58,0,0,1,8.59-8.59H953.37A8.58,8.58,0,0,1,962,84.24Z"/>
      <path class="cls-2" d="M962,84.24v0H697.65v0a8.58,8.58,0,0,1,8.59-8.59H953.37A8.58,8.58,0,0,1,962,84.24Z"/>
    </g>
    <circle class="cls-3" cx="423.9" cy="301.26" r="36.43"/>
    <circle class="cls-3" cx="733.96" cy="301.26" r="36.43"/>
    <circle class="cls-3" cx="1028.64" cy="301.26" r="36.43"/>
    <path class="cls-3" d="M334.53,283.49c-65.85-1.78-240,52.06-240,146.26,0,40.73,29.44,45,66.46,34.3,29.47-8.49,161.32-152.65,201.2-175.3,4.37-2.49,2.13-4.46,2.13-4.46Z"/>
    <path class="cls-3" d="M45.19,376.73a39.77,39.77,0,0,1-13.09,5.69c-5.1,1.13-10.25,1.23-15.17-1-6.37-2.84-10.37-7.61-11.46-14.58s1.13-13.09,5.8-18.35a36,36,0,0,1,10.3-7.82,77.11,77.11,0,0,1,22.1-7.36,77.25,77.25,0,0,1,14.54-1.45c3.55,0,7.1.28,10.64.59a71.69,71.69,0,0,1,15.43,3.42,72.7,72.7,0,0,1,14,6.54c1.47.85,2.88,1.81,4.31,2.72l-.12.37a11.84,11.84,0,0,0-1.33.06c-1.26.18-2.51.4-3.77.58-.89.12-1.79.11-2.67.27-5.58,1-10.61,3.41-15.49,6.23a142.61,142.61,0,0,0-15.82,10.88c-2.22,1.73-4.47,3.42-6.79,5Z"/>
    <path class="cls-3" d="M104.89,316.15a20.56,20.56,0,0,1-7.33.45,12.22,12.22,0,0,1-7.17-3.12,9.44,9.44,0,0,1-3-9.06,11.08,11.08,0,0,1,6-7.86,18.42,18.42,0,0,1,6.35-2,43.91,43.91,0,0,1,19.27,2.16c1.71.62,3.38,1.38,5,2.15a36.69,36.69,0,0,1,6.86,4.36,37.13,37.13,0,0,1,5.65,5.63c.56.66,1.07,1.38,1.61,2.07l-.12.15c-.22-.07-.43-.15-.66-.2-.64-.14-1.28-.24-1.92-.38-.45-.1-.89-.26-1.34-.34a25,25,0,0,0-8.58.3A73,73,0,0,0,116,313c-1.38.44-2.77.87-4.17,1.23Z"/>
  </g>
</svg>
