<svg xmlns="http://www.w3.org/2000/svg" viewBox="0 0 1920 1080">
  <defs>
    <style>
      .cls-1 {
        fill: #a8a8a8;
      }

      .cls-2 {
        font-size: 78.52px;
        font-family: GillSans-UltraBold, Gill Sans;
        font-weight: 700;
      }

      .cls-2, .cls-6 {
        fill: #ff0;
      }

      .cls-3, .cls-4, .cls-5 {
        fill: none;
        stroke-miterlimit: 10;
      }

      .cls-3 {
        stroke: #ff0;
        stroke-width: 30px;
      }

      .cls-4 {
        stroke: #636363;
      }

      .cls-5 {
        stroke: #fff;
      }

      .cls-7 {
        font-size: 12px;
        font-family: MyriadPro-Regular, Myriad Pro;
      }

      .cls-8 {
        letter-spacing: -0.01em;
      }

      .cls-9 {
        letter-spacing: -0.01em;
      }
    </style>
  </defs>
  <title>HackerSticker</title>
  <g id="Lovk">
    <rect width="1920" height="1080"/>
  </g>
  <g id="Layer_1" data-name="Layer 1">
    <g>
      <polygon class="cls-1" points="1504.01 703.4 1511.29 696.41 1511.76 695.96 1512.32 696.25 1526.69 703.43 1525.6 704.11 1525.69 693.53 1525.69 693.44 1525.71 693.37 1529.45 679.3 1529.56 678.89 1529.96 678.9 1562.44 679.2 1562.21 679.43 1562.34 665.32 1562.34 665.22 1562.44 665.22 1573.26 665.32 1562.44 665.42 1562.54 665.32 1562.67 679.43 1562.67 679.65 1562.44 679.66 1529.96 679.96 1530.48 679.56 1527 693.7 1527.02 693.53 1527.12 704.11 1527.13 705.32 1526.02 704.8 1511.53 697.88 1512.56 697.71 1505.41 704.83 1504.01 703.4"/>
      <polygon class="cls-1" points="1505.62 711.63 1535.96 707.17 1535.56 707.39 1545.85 696.08 1545.93 696 1546.02 695.97 1576.45 685.51 1546.3 696.74 1546.47 696.63 1536.56 708.28 1536.41 708.45 1536.17 708.5 1505.93 713.6 1505.62 711.63"/>
      <polygon class="cls-1" points="1508.7 718.82 1538.03 711.49 1538.52 711.37 1538.74 711.8 1546.51 727.31 1545.92 727.17 1556.65 719.6 1556.71 719.55 1556.79 719.56 1575.39 719.79 1556.79 720.03 1556.92 719.98 1546.39 727.82 1546.03 728.1 1545.8 727.68 1537.64 712.37 1538.35 712.68 1509.21 720.76 1508.7 718.82"/>
      <polygon class="cls-1" points="1512.81 732.49 1547.04 741.13 1547.66 741.29 1547.45 741.88 1542.68 755.15 1542.51 754.68 1556.94 763.43 1556.98 763.45 1557 763.49 1565.44 776.69 1556.68 763.7 1556.74 763.76 1542.11 755.36 1541.83 755.2 1541.93 754.89 1546.37 741.5 1546.78 742.24 1512.35 734.43 1512.81 732.49"/>
      <polygon class="cls-1" points="1503.16 753.01 1544.57 783.82 1502 754.64 1503.16 753.01"/>
      <polygon class="cls-1" points="1489.67 756.3 1513.04 808.02 1513.07 808.1 1513.07 808.18 1512.68 844.94 1512.29 808.18 1512.32 808.35 1487.86 757.15 1489.67 756.3"/>
      <polygon class="cls-1" points="1473.64 757.84 1459.98 776.54 1460.11 775.96 1463.32 792.74 1463.4 793.17 1463.03 793.38 1443.43 804.72 1443.63 804.43 1440.89 821.44 1440.89 821.47 1440.88 821.49 1439.34 824.75 1440.5 821.34 1440.49 821.38 1442.83 804.32 1442.86 804.13 1443.03 804.03 1462.42 792.34 1462.14 792.98 1458.63 776.25 1458.57 775.94 1458.76 775.67 1472.01 756.67 1473.64 757.84"/>
      <polygon class="cls-1" points="1454.19 745.96 1441.88 752.25 1441.53 752.43 1441.39 752.1 1438.28 745.09 1442.02 751.78 1441.53 751.63 1453.19 744.22 1454.19 745.96"/>
      <polygon class="cls-1" points="1447.69 737.11 1439.34 739.37 1446.94 735.25 1447.69 737.11"/>
      <polygon class="cls-1" points="1459.79 754.87 1443.59 773.73 1458.22 753.63 1459.79 754.87"/>
      <polygon class="cls-1" points="1447 718.88 1444.13 716.87 1447.63 716.98 1447 718.88"/>
      <polygon class="cls-1" points="1449.8 715.45 1444.91 709.7 1444.85 709.63 1444.84 709.6 1443.06 705.18 1445.54 709.25 1445.46 709.15 1451.21 714.03 1449.8 715.45"/>
      <polygon class="cls-1" points="1456.55 705.04 1454.29 697.87 1454.27 697.81 1452.5 689.69 1452.56 689.81 1448.83 685.46 1452.95 689.44 1452.99 689.48 1453.01 689.55 1455.53 697.47 1455.51 697.42 1458.43 704.35 1456.55 705.04"/>
      <polygon class="cls-1" points="1472.04 696.24 1459.84 680.33 1459.71 680.15 1459.71 679.96 1460.03 664.31 1460.05 664.41 1455.29 652.57 1460.54 664.2 1460.56 664.25 1460.56 664.31 1460.88 679.96 1460.75 679.59 1473.6 694.99 1472.04 696.24"/>
      <polygon class="cls-1" points="1483.53 693.3 1485.68 684.17 1485.69 684.09 1485.7 684.07 1487.64 679.54 1487.65 679.51 1487.65 679.51 1491.42 672.76 1488.28 679.83 1488.3 679.79 1486.78 684.48 1486.81 684.38 1485.5 693.67 1483.53 693.3"/>
      <polygon class="cls-1" points="1493.11 695.96 1500.07 667.26 1500.05 667.43 1500.23 646.88 1500.23 646.71 1500.32 646.58 1513.92 626.15 1513.96 626.09 1514.03 626.05 1547.75 605.8 1514.39 626.64 1514.5 626.53 1501.26 647.19 1501.35 646.88 1501.53 667.43 1501.53 667.51 1501.51 667.6 1495.05 696.41 1493.11 695.96"/>
      <polygon class="cls-1" points="1494.97 699.55 1501 683.18 1501.06 683.03 1501.16 682.96 1508.68 677.68 1508.67 677.69 1512.46 674.13 1508.9 677.92 1508.89 677.93 1508.88 677.94 1501.7 683.68 1501.86 683.47 1496.87 700.18 1494.97 699.55"/>
      <path class="cls-1" d="M1476.82,695.76l-3.74-26.24,0-.1v-.1l2.18-14.94v.1l-1.37-24.37c-.12-2-.21-4.06-.36-6.09l-.59-6.07-1.17-12.15,1.44,12.12.72,6.07c.2,2,.33,4,.5,6.08l1.91,24.34v.11l-1.84,15v-.2l4.32,26.15Z"/>
      <polygon class="cls-1" points="1482.61 760.54 1480.99 778.28 1480.98 778.37 1480.96 778.43 1477.65 787.81 1477.64 787.84 1477.63 787.85 1470.17 802.43 1476.97 787.53 1476.95 787.58 1479.83 778.06 1479.8 778.2 1480.61 760.4 1482.61 760.54"/>
    </g>
    <g>
      <polygon class="cls-1" points="1796.29 703.4 1803.57 696.41 1804.04 695.96 1804.61 696.25 1818.97 703.43 1817.88 704.11 1817.98 693.53 1817.98 693.44 1818 693.37 1821.73 679.3 1821.84 678.89 1822.25 678.9 1854.72 679.2 1854.49 679.43 1854.62 665.32 1854.62 665.22 1854.72 665.22 1865.54 665.32 1854.72 665.42 1854.82 665.32 1854.95 679.43 1854.95 679.65 1854.72 679.66 1822.25 679.96 1822.76 679.56 1819.28 693.7 1819.3 693.53 1819.4 704.11 1819.41 705.32 1818.31 704.8 1803.81 697.88 1804.84 697.71 1797.69 704.83 1796.29 703.4"/>
      <polygon class="cls-1" points="1797.9 711.63 1828.24 707.17 1827.84 707.39 1838.13 696.08 1838.21 696 1838.3 695.97 1868.73 685.51 1838.58 696.74 1838.75 696.63 1828.85 708.28 1828.7 708.45 1828.45 708.5 1798.21 713.6 1797.9 711.63"/>
      <polygon class="cls-1" points="1800.99 718.82 1830.31 711.49 1830.8 711.37 1831.02 711.8 1838.8 727.31 1838.21 727.17 1848.93 719.6 1849 719.55 1849.07 719.56 1867.67 719.79 1849.07 720.03 1849.21 719.98 1838.68 727.82 1838.31 728.1 1838.09 727.68 1829.92 712.37 1830.63 712.68 1801.5 720.76 1800.99 718.82"/>
      <polygon class="cls-1" points="1805.1 732.49 1839.32 741.13 1839.94 741.29 1839.73 741.88 1834.97 755.15 1834.79 754.68 1849.22 763.43 1849.26 763.45 1849.28 763.49 1857.72 776.69 1848.96 763.7 1849.02 763.76 1834.39 755.36 1834.11 755.2 1834.21 754.89 1838.65 741.5 1839.06 742.24 1804.63 734.43 1805.1 732.49"/>
      <polygon class="cls-1" points="1795.45 753.01 1836.85 783.82 1794.28 754.64 1795.45 753.01"/>
      <polygon class="cls-1" points="1781.95 756.3 1805.32 808.02 1805.36 808.1 1805.36 808.18 1804.96 844.94 1804.57 808.18 1804.61 808.35 1780.14 757.15 1781.95 756.3"/>
      <polygon class="cls-1" points="1765.92 757.84 1752.27 776.54 1752.39 775.96 1755.6 792.74 1755.64 792.98 1755.53 793.16 1748.61 804.58 1748.66 804.43 1745.93 821.44 1745.91 821.54 1745.83 821.59 1734.81 827.93 1745.62 821.24 1745.53 821.38 1747.87 804.32 1747.88 804.25 1747.92 804.17 1754.49 792.56 1754.42 792.98 1750.92 776.25 1750.85 775.94 1751.04 775.67 1764.29 756.67 1765.92 757.84"/>
      <polygon class="cls-1" points="1746.69 745.79 1738.53 753.29 1738.09 753.69 1737.87 753.19 1734.81 746.15 1738.61 752.82 1737.95 752.72 1745.26 744.39 1746.69 745.79"/>
      <polygon class="cls-1" points="1740.06 737.06 1734.81 738.66 1739.14 735.29 1740.06 737.06"/>
      <polygon class="cls-1" points="1752.07 754.87 1735.88 773.73 1750.5 753.63 1752.07 754.87"/>
      <polygon class="cls-1" points="1739.28 718.88 1736.41 716.87 1739.91 716.98 1739.28 718.88"/>
      <polygon class="cls-1" points="1742.08 715.45 1737.2 709.7 1737.14 709.63 1737.13 709.6 1735.35 705.18 1737.82 709.25 1737.74 709.15 1743.49 714.03 1742.08 715.45"/>
      <polygon class="cls-1" points="1748.84 705.04 1746.57 697.87 1746.56 697.81 1744.78 689.69 1744.85 689.81 1741.11 685.46 1745.23 689.44 1745.27 689.48 1745.3 689.55 1747.81 697.47 1747.8 697.42 1750.71 704.35 1748.84 705.04"/>
      <polygon class="cls-1" points="1764.32 696.24 1752.12 680.33 1751.99 680.15 1751.99 679.96 1752.32 664.31 1752.34 664.41 1747.57 652.57 1752.82 664.2 1752.84 664.25 1752.84 664.31 1753.16 679.96 1753.04 679.59 1765.89 694.99 1764.32 696.24"/>
      <polygon class="cls-1" points="1775.81 693.3 1777.96 684.17 1777.98 684.09 1777.99 684.07 1779.92 679.54 1779.94 679.51 1779.94 679.51 1783.7 672.76 1780.57 679.83 1780.58 679.79 1779.06 684.48 1779.09 684.38 1777.78 693.67 1775.81 693.3"/>
      <polygon class="cls-1" points="1785.39 695.96 1792.35 667.26 1792.33 667.43 1792.51 646.88 1792.51 646.71 1792.6 646.58 1806.2 626.15 1806.24 626.09 1806.31 626.05 1840.04 605.8 1806.67 626.64 1806.78 626.53 1793.54 647.19 1793.63 646.88 1793.81 667.43 1793.81 667.51 1793.79 667.6 1787.34 696.41 1785.39 695.96"/>
      <polygon class="cls-1" points="1787.25 699.55 1793.29 683.18 1793.34 683.03 1793.44 682.96 1800.97 677.68 1800.95 677.69 1804.74 674.13 1801.18 677.92 1801.18 677.93 1801.16 677.94 1793.98 683.68 1794.14 683.47 1789.15 700.18 1787.25 699.55"/>
      <path class="cls-1" d="M1769.1,695.76l-3.74-26.24,0-.1,0-.1,2.18-14.94v.1l-1.37-24.37c-.12-2-.2-4.06-.36-6.09l-.59-6.07L1764,605.8l1.44,12.12.72,6.07c.2,2,.33,4,.5,6.08l1.91,24.34v.11l-1.85,15v-.2l4.32,26.15Z"/>
      <polygon class="cls-1" points="1774.89 760.54 1773.28 778.28 1773.27 778.37 1773.25 778.43 1769.93 787.81 1769.92 787.84 1769.92 787.85 1762.45 802.43 1769.25 787.53 1769.23 787.58 1772.11 778.06 1772.09 778.2 1772.9 760.4 1774.89 760.54"/>
    </g>
    <g>
      <polygon class="cls-1" points="1189.41 703.4 1196.69 696.41 1197.16 695.96 1197.72 696.25 1212.09 703.43 1210.99 704.11 1211.09 693.53 1211.09 693.44 1211.11 693.37 1214.85 679.3 1214.96 678.89 1215.36 678.9 1247.84 679.2 1247.61 679.43 1247.74 665.32 1247.74 665.22 1247.84 665.22 1258.66 665.32 1247.84 665.42 1247.93 665.32 1248.07 679.43 1248.07 679.65 1247.84 679.66 1215.36 679.96 1215.87 679.56 1212.4 693.7 1212.42 693.53 1212.51 704.11 1212.53 705.32 1211.42 704.8 1196.92 697.88 1197.96 697.71 1190.81 704.83 1189.41 703.4"/>
      <polygon class="cls-1" points="1191.01 711.63 1221.36 707.17 1220.96 707.39 1231.25 696.08 1231.32 696 1231.42 695.97 1261.85 685.51 1231.69 696.74 1231.87 696.63 1221.96 708.28 1221.81 708.45 1221.56 708.5 1191.33 713.6 1191.01 711.63"/>
      <polygon class="cls-1" points="1194.1 718.82 1223.43 711.49 1223.92 711.37 1224.13 711.8 1231.91 727.31 1231.32 727.17 1242.05 719.6 1242.11 719.55 1242.18 719.56 1260.79 719.79 1242.18 720.03 1242.32 719.98 1231.79 727.82 1231.42 728.1 1231.2 727.68 1223.04 712.37 1223.74 712.68 1194.61 720.76 1194.1 718.82"/>
      <polygon class="cls-1" points="1198.21 732.49 1232.44 741.13 1233.05 741.29 1232.85 741.88 1228.08 755.15 1227.91 754.68 1242.33 763.43 1242.37 763.45 1242.4 763.49 1250.84 776.69 1242.08 763.7 1242.14 763.76 1227.5 755.36 1227.23 755.2 1227.33 754.89 1231.77 741.5 1232.17 742.24 1197.74 734.43 1198.21 732.49"/>
      <polygon class="cls-1" points="1188.56 753.01 1229.96 783.82 1187.4 754.64 1188.56 753.01"/>
      <polygon class="cls-1" points="1175.07 756.3 1198.43 808.02 1198.47 808.1 1198.47 808.18 1198.08 844.94 1197.68 808.18 1197.72 808.35 1173.26 757.15 1175.07 756.3"/>
      <polygon class="cls-1" points="1159.04 757.84 1145.38 776.54 1145.51 775.96 1148.71 792.74 1148.79 793.17 1148.43 793.38 1128.83 804.72 1129.02 804.43 1126.29 821.44 1126.27 821.54 1126.19 821.59 1115.17 827.93 1125.98 821.24 1125.89 821.38 1128.23 804.32 1128.26 804.13 1128.42 804.03 1147.82 792.34 1147.53 792.98 1144.03 776.25 1143.97 775.94 1144.16 775.67 1157.41 756.67 1159.04 757.84"/>
      <polygon class="cls-1" points="1139.59 745.96 1127.28 752.25 1126.93 752.43 1126.78 752.1 1123.68 745.09 1127.42 751.78 1126.93 751.63 1138.59 744.22 1139.59 745.96"/>
      <polygon class="cls-1" points="1133.08 737.11 1124.74 739.37 1132.34 735.25 1133.08 737.11"/>
      <polygon class="cls-1" points="1145.19 754.87 1128.99 773.73 1143.62 753.63 1145.19 754.87"/>
      <polygon class="cls-1" points="1132.4 718.88 1129.52 716.87 1133.03 716.98 1132.4 718.88"/>
      <polygon class="cls-1" points="1135.19 715.45 1130.31 709.7 1130.25 709.63 1130.24 709.6 1128.46 705.18 1130.93 709.25 1130.86 709.15 1136.61 714.03 1135.19 715.45"/>
      <polygon class="cls-1" points="1141.95 705.04 1139.69 697.87 1139.67 697.81 1137.9 689.69 1137.96 689.81 1134.22 685.46 1138.35 689.44 1138.39 689.48 1138.41 689.55 1140.93 697.47 1140.91 697.42 1143.83 704.35 1141.95 705.04"/>
      <polygon class="cls-1" points="1157.44 696.24 1145.24 680.33 1145.1 680.15 1145.11 679.96 1145.43 664.31 1145.45 664.41 1140.68 652.57 1145.94 664.2 1145.96 664.25 1145.96 664.31 1146.28 679.96 1146.15 679.59 1159 694.99 1157.44 696.24"/>
      <polygon class="cls-1" points="1168.93 693.3 1171.08 684.17 1171.09 684.09 1171.1 684.07 1173.04 679.54 1173.05 679.51 1173.05 679.51 1176.82 672.76 1173.68 679.83 1173.69 679.79 1172.18 684.48 1172.2 684.38 1170.89 693.67 1168.93 693.3"/>
      <polygon class="cls-1" points="1178.5 695.96 1185.46 667.26 1185.45 667.43 1185.63 646.88 1185.63 646.71 1185.72 646.58 1199.32 626.15 1199.36 626.09 1199.42 626.05 1233.15 605.8 1199.79 626.64 1199.89 626.53 1186.66 647.19 1186.75 646.88 1186.93 667.43 1186.93 667.51 1186.91 667.6 1180.45 696.41 1178.5 695.96"/>
      <polygon class="cls-1" points="1180.37 699.55 1186.4 683.18 1186.45 683.03 1186.56 682.96 1194.08 677.68 1194.07 677.69 1197.86 674.13 1194.3 677.92 1194.29 677.93 1194.28 677.94 1187.1 683.68 1187.26 683.47 1182.26 700.18 1180.37 699.55"/>
      <path class="cls-1" d="M1162.21,695.76l-3.74-26.24v-.2l2.18-14.94v.1l-1.37-24.37c-.12-2-.21-4.06-.36-6.09l-.59-6.07-1.17-12.15,1.44,12.12.72,6.07c.2,2,.33,4,.5,6.08l1.91,24.34v.11l-1.85,15v-.2l4.32,26.15Z"/>
      <polygon class="cls-1" points="1168.01 760.54 1166.39 778.28 1166.38 778.37 1166.36 778.43 1163.05 787.81 1163.04 787.84 1163.03 787.85 1155.56 802.43 1162.36 787.53 1162.35 787.58 1165.23 778.06 1165.2 778.2 1166.01 760.4 1168.01 760.54"/>
    </g>
    <text class="cls-2" transform="translate(192.87 381.59)">HI, TELL ME <tspan x="0" y="94.22">A STORY</tspan></text>
    <path class="cls-3" d="M777.15,274.88c60,78.24,9.23,223.73-73.13,276.08-56.13,35.67-337.95,41.57-409.54,36.95S159,564,155.15,525.55s-3.85-51.13-13.86-63.67-87.65-53.65-87.65-53.65,100-56.82,104.59-67.51,2.3-56.88,10.77-73.82,43.11-50,128.56-55.43S717.1,196.64,777.15,274.88Z"/>
    <path class="cls-4" d="M2004.82,930.5h-182c-42.32,0-88.29-36.7-88.29-82V584.45c0-45.27,46-82,88.29-82h182c42.32,0,88.29,36.69,88.29,82V848.54C2093.11,893.8,2047.14,930.5,2004.82,930.5Z"/>
    <g id="Layer_2" data-name="Layer 2">
      <g id="refined">
        <path class="cls-4" d="M1121.82,764.49H1398.1"/>
        <path class="cls-4" d="M1358.7,930a.8.8,0,0,1-.53.19"/>
        <path class="cls-4" d="M1377.18,507.66l-236,76.68-24.39,229.45s-13,61.81,42,116.12H1358.7s49.08-39.65,42.38-126.33S1377.18,507.66,1377.18,507.66Z"/>
        <line class="cls-4" x1="1142.93" y1="910.58" x2="1375.9" y2="910.58"/>
      </g>
    </g>
    <g>
      <path class="cls-4" d="M1446.63,501.64H1697a7,7,0,0,1,7,7V906.5a23.64,23.64,0,0,1-23.64,23.64h-217a23.64,23.64,0,0,1-23.64-23.64V508.62A7,7,0,0,1,1446.63,501.64Z"/>
      <path class="cls-4" d="M1704,510.24v0H1439.65v0a8.58,8.58,0,0,1,8.59-8.59h247.13A8.58,8.58,0,0,1,1704,510.24Z"/>
      <path class="cls-4" d="M1704,510.24v0H1439.65v0a8.58,8.58,0,0,1,8.59-8.59h247.13A8.58,8.58,0,0,1,1704,510.24Z"/>
    </g>
    <rect class="cls-5" x="-0.5" y="-432.5" width="640.17" height="433"/>
    <rect class="cls-5" x="639.67" y="-432.5" width="640.17" height="433"/>
    <rect class="cls-5" x="1279.83" y="-432.5" width="640.17" height="433"/>
    <circle class="cls-6" cx="1165.9" cy="727.26" r="36.43"/>
    <circle class="cls-6" cx="1475.96" cy="727.26" r="36.43"/>
    <circle class="cls-6" cx="1770.64" cy="727.26" r="36.43"/>
    <path class="cls-6" d="M1104.29,715.25c3.87,1.16,2.72-4.61,1.59-5.64-62-56.7-83-131.87-108.41-146.7-28.82-16.82-64.64-1-75.07,36-7.22,25.63,89.1,88.52,158.95,109.45Z"/>
    <path class="cls-6" d="M1076.53,709.49c-65.85-1.78-240,52.06-240,146.26,0,40.73,29.44,45,66.46,34.3,29.47-8.49,161.32-152.65,201.2-175.3,4.37-2.49,2.13-4.46,2.13-4.46Z"/>
    <text class="cls-7" transform="translate(960 540)">cus<tspan class="cls-8" x="16.74" y="0">t</tspan><tspan x="20.64" y="0">omi</tspan><tspan class="cls-9" x="40.04" y="0">z</tspan><tspan x="45.1" y="0">e</tspan></text>
    <text class="cls-7" transform="translate(960 540)">cus<tspan class="cls-8" x="16.74" y="0">t</tspan><tspan x="20.64" y="0">omi</tspan><tspan class="cls-9" x="40.04" y="0">z</tspan><tspan x="45.1" y="0">e</tspan></text>
    <path class="cls-6" d="M787.19,802.73a39.77,39.77,0,0,1-13.09,5.69c-5.1,1.13-10.25,1.23-15.17-1-6.37-2.84-10.37-7.61-11.46-14.58s1.13-13.09,5.8-18.35a36,36,0,0,1,10.3-7.82,85.54,85.54,0,0,1,36.64-8.81c3.55,0,7.1.28,10.64.59a71.69,71.69,0,0,1,15.43,3.42,72.7,72.7,0,0,1,14.05,6.54c1.47.85,2.88,1.81,4.31,2.72l-.12.37a11.84,11.84,0,0,0-1.33.06c-1.26.18-2.51.4-3.77.58-.89.12-1.79.11-2.67.27-5.58,1-10.61,3.41-15.49,6.23a142.61,142.61,0,0,0-15.82,10.88c-2.22,1.73-4.47,3.42-6.79,5Z"/>
    <path class="cls-6" d="M846.89,742.15a20.56,20.56,0,0,1-7.33.45,12.22,12.22,0,0,1-7.17-3.12,9.44,9.44,0,0,1-3-9.06,11.08,11.08,0,0,1,6-7.86,18.42,18.42,0,0,1,6.35-2,43.91,43.91,0,0,1,19.27,2.16c1.71.62,3.38,1.38,5,2.15a36.69,36.69,0,0,1,6.86,4.36,37.13,37.13,0,0,1,5.65,5.63c.56.66,1.07,1.38,1.61,2.07l-.12.15c-.22-.07-.43-.15-.66-.2-.64-.14-1.28-.24-1.92-.38-.45-.1-.89-.26-1.34-.34a25,25,0,0,0-8.58.3A73,73,0,0,0,858,739c-1.38.44-2.77.87-4.17,1.23Z"/>
  </g>
</svg>
