<svg xmlns="http://www.w3.org/2000/svg" viewBox="0 0 1199 654">
  <defs>
    <style>
      .cls-1 {
        fill: #a8a8a8;
      }

      .cls-2 {
        fill: none;
        stroke: #636363;
        stroke-miterlimit: 10;
      }

      .cls-3 {
        fill: #ff0;
      }
    </style>
  </defs>
  <title>Hack</title>
  <g id="Layer_1" data-name="Layer 1">
    <g>
      <polygon class="cls-1" points="783.01 277.4 790.29 270.41 790.76 269.96 791.32 270.25 805.69 277.43 804.6 278.11 804.7 267.53 804.7 267.44 804.72 267.37 808.45 253.3 808.56 252.9 808.97 252.9 841.44 253.2 841.21 253.43 841.34 239.32 841.34 239.22 841.44 239.22 852.26 239.32 841.44 239.42 841.54 239.32 841.67 253.43 841.67 253.65 841.44 253.66 808.97 253.96 809.48 253.56 806 267.7 806.02 267.53 806.12 278.11 806.13 279.32 805.02 278.8 790.53 271.88 791.56 271.71 784.41 278.83 783.01 277.4"/>
      <polygon class="cls-1" points="784.62 285.63 814.96 281.17 814.56 281.39 824.85 270.08 824.93 270 825.02 269.97 855.45 259.51 825.3 270.74 825.47 270.63 815.56 282.28 815.41 282.45 815.17 282.5 784.93 287.6 784.62 285.63"/>
      <polygon class="cls-1" points="787.71 292.82 817.03 285.49 817.52 285.37 817.74 285.8 825.51 301.31 824.92 301.17 835.65 293.6 835.71 293.56 835.79 293.56 854.39 293.79 835.79 294.03 835.92 293.98 825.39 301.82 825.02 302.1 824.8 301.68 816.64 286.37 817.35 286.68 788.21 294.76 787.71 292.82"/>
      <polygon class="cls-1" points="791.81 306.49 826.04 315.13 826.66 315.29 826.45 315.88 821.68 329.15 821.51 328.68 835.94 337.43 835.98 337.45 836 337.49 844.44 350.69 835.68 337.7 835.74 337.76 821.11 329.36 820.83 329.2 820.93 328.89 825.37 315.5 825.78 316.24 791.35 308.44 791.81 306.49"/>
      <polygon class="cls-1" points="782.16 327.01 823.57 357.81 781 328.64 782.16 327.01"/>
      <polygon class="cls-1" points="768.67 330.3 792.04 382.02 792.07 382.1 792.07 382.18 791.68 418.94 791.29 382.18 791.32 382.35 766.86 331.15 768.67 330.3"/>
      <polygon class="cls-1" points="752.64 331.84 738.98 350.54 739.11 349.96 742.32 366.74 742.4 367.17 742.03 367.38 722.43 378.72 722.63 378.44 719.89 395.44 719.89 395.47 719.88 395.49 718.34 398.75 719.5 395.33 719.49 395.38 721.83 378.32 721.86 378.13 722.02 378.03 741.42 366.34 741.14 366.98 737.63 350.25 737.57 349.94 737.76 349.67 751.01 330.68 752.64 331.84"/>
      <polygon class="cls-1" points="733.19 319.96 720.88 326.25 720.53 326.43 720.39 326.1 717.28 319.09 721.02 325.78 720.53 325.63 732.2 318.22 733.19 319.96"/>
      <polygon class="cls-1" points="726.69 311.11 718.34 313.37 725.94 309.25 726.69 311.11"/>
      <polygon class="cls-1" points="738.79 328.87 722.59 347.73 737.22 327.63 738.79 328.87"/>
      <polygon class="cls-1" points="726 292.88 723.13 290.87 726.63 290.98 726 292.88"/>
      <polygon class="cls-1" points="728.8 289.45 723.91 283.7 723.85 283.63 723.84 283.6 722.06 279.18 724.53 283.25 724.46 283.15 730.21 288.04 728.8 289.45"/>
      <polygon class="cls-1" points="735.55 279.04 733.29 271.87 733.27 271.81 731.5 263.69 731.56 263.81 727.83 259.46 731.95 263.44 731.99 263.48 732.01 263.56 734.53 271.47 734.51 271.42 737.43 278.35 735.55 279.04"/>
      <polygon class="cls-1" points="751.04 270.24 738.84 254.32 738.71 254.15 738.71 253.96 739.03 238.31 739.05 238.41 734.29 226.57 739.54 238.2 739.56 238.25 739.56 238.31 739.88 253.96 739.75 253.59 752.6 268.99 751.04 270.24"/>
      <polygon class="cls-1" points="762.53 267.3 764.68 258.17 764.69 258.09 764.7 258.07 766.64 253.54 766.65 253.51 766.65 253.51 770.42 246.76 767.28 253.82 767.3 253.79 765.78 258.48 765.81 258.38 764.5 267.67 762.53 267.3"/>
      <polygon class="cls-1" points="772.11 269.96 779.07 241.26 779.05 241.43 779.23 220.88 779.23 220.71 779.32 220.58 792.92 200.15 792.96 200.09 793.03 200.05 826.75 179.8 793.39 200.64 793.5 200.53 780.26 221.19 780.35 220.88 780.53 241.43 780.53 241.51 780.51 241.6 774.05 270.41 772.11 269.96"/>
      <polygon class="cls-1" points="773.97 273.55 780 257.18 780.06 257.03 780.16 256.96 787.68 251.68 787.67 251.69 791.46 248.13 787.9 251.92 787.89 251.93 787.88 251.94 780.7 257.68 780.86 257.46 775.87 274.18 773.97 273.55"/>
      <path class="cls-1" d="M755.82,269.76l-3.74-26.24,0-.1v-.1l2.18-14.94v.1l-1.37-24.37c-.12-2-.21-4.06-.36-6.09l-.59-6.07-1.17-12.15,1.44,12.12.72,6.07c.2,2,.33,4,.5,6.08l1.91,24.34v.11l-1.84,15v-.2l4.32,26.15Z"/>
      <polygon class="cls-1" points="761.61 334.54 759.99 352.28 759.98 352.37 759.96 352.43 756.65 361.81 756.64 361.84 756.63 361.85 749.17 376.43 755.97 361.53 755.95 361.57 758.83 352.06 758.8 352.2 759.61 334.4 761.61 334.54"/>
    </g>
    <g>
      <polygon class="cls-1" points="1075.29 277.4 1082.57 270.41 1083.04 269.96 1083.61 270.25 1097.97 277.43 1096.88 278.11 1096.98 267.53 1096.98 267.44 1097 267.37 1100.73 253.3 1100.84 252.9 1101.25 252.9 1133.72 253.2 1133.49 253.43 1133.62 239.32 1133.62 239.22 1133.72 239.22 1144.54 239.32 1133.72 239.42 1133.82 239.32 1133.95 253.43 1133.95 253.65 1133.72 253.66 1101.25 253.96 1101.76 253.56 1098.28 267.7 1098.3 267.53 1098.4 278.11 1098.41 279.32 1097.31 278.8 1082.81 271.88 1083.84 271.71 1076.69 278.83 1075.29 277.4"/>
      <polygon class="cls-1" points="1076.9 285.63 1107.24 281.17 1106.84 281.39 1117.13 270.08 1117.21 270 1117.3 269.97 1147.73 259.51 1117.58 270.74 1117.75 270.63 1107.85 282.28 1107.7 282.45 1107.45 282.5 1077.21 287.6 1076.9 285.63"/>
      <polygon class="cls-1" points="1079.99 292.82 1109.31 285.49 1109.8 285.37 1110.02 285.8 1117.8 301.31 1117.21 301.17 1127.93 293.6 1128 293.56 1128.07 293.56 1146.67 293.79 1128.07 294.03 1128.21 293.98 1117.68 301.82 1117.31 302.1 1117.09 301.68 1108.92 286.37 1109.63 286.68 1080.5 294.76 1079.99 292.82"/>
      <polygon class="cls-1" points="1084.1 306.49 1118.32 315.13 1118.94 315.29 1118.73 315.88 1113.97 329.15 1113.79 328.68 1128.22 337.43 1128.26 337.45 1128.28 337.49 1136.72 350.69 1127.96 337.7 1128.02 337.76 1113.39 329.36 1113.11 329.2 1113.21 328.89 1117.65 315.5 1118.06 316.24 1083.63 308.44 1084.1 306.49"/>
      <polygon class="cls-1" points="1074.45 327.01 1115.85 357.81 1073.28 328.64 1074.45 327.01"/>
      <polygon class="cls-1" points="1060.95 330.3 1084.32 382.02 1084.36 382.1 1084.36 382.18 1083.96 418.94 1083.57 382.18 1083.61 382.35 1059.14 331.15 1060.95 330.3"/>
      <polygon class="cls-1" points="1044.92 331.84 1031.27 350.54 1031.39 349.96 1034.6 366.74 1034.64 366.98 1034.53 367.17 1027.61 378.58 1027.66 378.44 1024.93 395.44 1024.91 395.54 1024.83 395.59 1013.81 401.94 1024.62 395.24 1024.53 395.38 1026.87 378.32 1026.88 378.25 1026.92 378.17 1033.49 366.56 1033.42 366.98 1029.92 350.25 1029.85 349.94 1030.04 349.67 1043.29 330.68 1044.92 331.84"/>
      <polygon class="cls-1" points="1025.69 319.79 1017.53 327.29 1017.09 327.69 1016.87 327.19 1013.81 320.15 1017.61 326.82 1016.95 326.72 1024.26 318.39 1025.69 319.79"/>
      <polygon class="cls-1" points="1019.06 311.06 1013.81 312.66 1018.14 309.29 1019.06 311.06"/>
      <polygon class="cls-1" points="1031.07 328.87 1014.88 347.73 1029.5 327.63 1031.07 328.87"/>
      <polygon class="cls-1" points="1018.28 292.88 1015.41 290.87 1018.91 290.98 1018.28 292.88"/>
      <polygon class="cls-1" points="1021.08 289.45 1016.2 283.7 1016.14 283.63 1016.13 283.6 1014.35 279.18 1016.82 283.25 1016.75 283.15 1022.49 288.04 1021.08 289.45"/>
      <polygon class="cls-1" points="1027.84 279.04 1025.57 271.87 1025.56 271.81 1023.78 263.69 1023.85 263.81 1020.11 259.46 1024.23 263.44 1024.27 263.48 1024.3 263.56 1026.81 271.47 1026.8 271.42 1029.71 278.35 1027.84 279.04"/>
      <polygon class="cls-1" points="1043.32 270.24 1031.12 254.32 1030.99 254.15 1030.99 253.96 1031.32 238.31 1031.34 238.41 1026.57 226.57 1031.82 238.2 1031.84 238.25 1031.84 238.31 1032.16 253.96 1032.04 253.59 1044.89 268.99 1043.32 270.24"/>
      <polygon class="cls-1" points="1054.81 267.3 1056.96 258.17 1056.98 258.09 1056.99 258.07 1058.92 253.54 1058.94 253.51 1058.94 253.51 1062.7 246.76 1059.57 253.82 1059.58 253.79 1058.06 258.48 1058.09 258.38 1056.78 267.67 1054.81 267.3"/>
      <polygon class="cls-1" points="1064.39 269.96 1071.35 241.26 1071.33 241.43 1071.51 220.88 1071.51 220.71 1071.6 220.58 1085.2 200.15 1085.24 200.09 1085.31 200.05 1119.04 179.8 1085.67 200.64 1085.78 200.53 1072.54 221.19 1072.63 220.88 1072.81 241.43 1072.81 241.51 1072.79 241.6 1066.34 270.41 1064.39 269.96"/>
      <polygon class="cls-1" points="1066.25 273.55 1072.29 257.18 1072.34 257.03 1072.44 256.96 1079.97 251.68 1079.95 251.69 1083.74 248.13 1080.18 251.92 1080.18 251.93 1080.16 251.94 1072.98 257.68 1073.14 257.46 1068.15 274.18 1066.25 273.55"/>
      <path class="cls-1" d="M1048.1,269.76l-3.74-26.24,0-.1,0-.1,2.18-14.94v.1l-1.37-24.37c-.12-2-.2-4.06-.36-6.09l-.59-6.07L1043,179.8l1.44,12.12.72,6.07c.2,2,.33,4,.5,6.08l1.91,24.34v.11l-1.85,15v-.2l4.32,26.15Z"/>
      <polygon class="cls-1" points="1053.89 334.54 1052.28 352.28 1052.27 352.37 1052.25 352.43 1048.93 361.81 1048.92 361.84 1048.92 361.85 1041.45 376.43 1048.25 361.53 1048.23 361.57 1051.11 352.06 1051.09 352.2 1051.9 334.4 1053.89 334.54"/>
    </g>
    <g>
      <polygon class="cls-1" points="468.41 277.4 475.69 270.41 476.16 269.96 476.72 270.25 491.09 277.43 490 278.11 490.09 267.53 490.09 267.44 490.11 267.37 493.85 253.3 493.96 252.9 494.36 252.9 526.84 253.2 526.61 253.43 526.74 239.32 526.74 239.22 526.84 239.22 537.66 239.32 526.84 239.42 526.93 239.32 527.07 253.43 527.07 253.65 526.84 253.66 494.36 253.96 494.87 253.56 491.4 267.7 491.42 267.53 491.51 278.11 491.52 279.32 490.42 278.8 475.92 271.88 476.96 271.71 469.81 278.83 468.41 277.4"/>
      <polygon class="cls-1" points="470.01 285.63 500.36 281.17 499.96 281.39 510.25 270.08 510.32 270 510.42 269.97 540.85 259.51 510.69 270.74 510.87 270.63 500.96 282.28 500.81 282.45 500.56 282.5 470.32 287.6 470.01 285.63"/>
      <polygon class="cls-1" points="473.1 292.82 502.43 285.49 502.92 285.37 503.13 285.8 510.91 301.31 510.32 301.17 521.05 293.6 521.11 293.56 521.18 293.56 539.78 293.79 521.18 294.03 521.32 293.98 510.79 301.82 510.42 302.1 510.2 301.68 502.04 286.37 502.74 286.68 473.61 294.76 473.1 292.82"/>
      <polygon class="cls-1" points="477.21 306.49 511.44 315.13 512.05 315.29 511.85 315.88 507.08 329.15 506.91 328.68 521.33 337.43 521.37 337.45 521.4 337.49 529.84 350.69 521.08 337.7 521.14 337.76 506.5 329.36 506.23 329.2 506.33 328.89 510.77 315.5 511.17 316.24 476.75 308.44 477.21 306.49"/>
      <polygon class="cls-1" points="467.56 327.01 508.96 357.81 466.4 328.64 467.56 327.01"/>
      <polygon class="cls-1" points="454.07 330.3 477.43 382.02 477.47 382.1 477.47 382.18 477.08 418.94 476.68 382.18 476.72 382.35 452.26 331.15 454.07 330.3"/>
      <polygon class="cls-1" points="438.04 331.84 424.38 350.54 424.51 349.96 427.71 366.74 427.79 367.17 427.43 367.38 407.83 378.72 408.02 378.44 405.29 395.44 405.27 395.54 405.19 395.59 394.18 401.94 404.98 395.24 404.89 395.38 407.23 378.32 407.25 378.13 407.42 378.03 426.82 366.34 426.53 366.98 423.03 350.25 422.97 349.94 423.16 349.67 436.41 330.68 438.04 331.84"/>
      <polygon class="cls-1" points="418.59 319.96 406.28 326.25 405.93 326.43 405.78 326.1 402.68 319.09 406.42 325.78 405.93 325.63 417.59 318.22 418.59 319.96"/>
      <polygon class="cls-1" points="412.08 311.11 403.74 313.37 411.34 309.25 412.08 311.11"/>
      <polygon class="cls-1" points="424.19 328.87 407.99 347.73 422.62 327.63 424.19 328.87"/>
      <polygon class="cls-1" points="411.4 292.88 408.52 290.87 412.03 290.98 411.4 292.88"/>
      <polygon class="cls-1" points="414.19 289.45 409.31 283.7 409.25 283.63 409.24 283.6 407.46 279.18 409.93 283.25 409.86 283.15 415.61 288.04 414.19 289.45"/>
      <polygon class="cls-1" points="420.95 279.04 418.69 271.87 418.67 271.81 416.9 263.69 416.96 263.81 413.23 259.46 417.35 263.44 417.39 263.48 417.41 263.56 419.93 271.47 419.91 271.42 422.83 278.35 420.95 279.04"/>
      <polygon class="cls-1" points="436.44 270.24 424.24 254.32 424.1 254.15 424.11 253.96 424.43 238.31 424.45 238.41 419.68 226.57 424.94 238.2 424.96 238.25 424.96 238.31 425.28 253.96 425.15 253.59 438 268.99 436.44 270.24"/>
      <polygon class="cls-1" points="447.93 267.3 450.07 258.17 450.09 258.09 450.1 258.07 452.04 253.54 452.05 253.51 452.05 253.51 455.82 246.76 452.68 253.82 452.69 253.79 451.18 258.48 451.2 258.38 449.89 267.67 447.93 267.3"/>
      <polygon class="cls-1" points="457.5 269.96 464.46 241.26 464.45 241.43 464.63 220.88 464.63 220.71 464.72 220.58 478.32 200.15 478.36 200.09 478.43 200.05 512.15 179.8 478.79 200.64 478.89 200.53 465.66 221.19 465.75 220.88 465.93 241.43 465.93 241.51 465.91 241.6 459.45 270.41 457.5 269.96"/>
      <polygon class="cls-1" points="459.37 273.55 465.4 257.18 465.45 257.03 465.56 256.96 473.08 251.68 473.06 251.69 476.86 248.13 473.3 251.92 473.29 251.93 473.28 251.94 466.1 257.68 466.26 257.46 461.26 274.18 459.37 273.55"/>
      <path class="cls-1" d="M441.21,269.76l-3.74-26.24v-.2l2.18-14.94v.1l-1.37-24.37c-.12-2-.21-4.06-.36-6.09l-.59-6.07-1.17-12.15,1.44,12.12.72,6.07c.2,2,.33,4,.5,6.08l1.91,24.34v.11l-1.85,15v-.2l4.32,26.15Z"/>
      <polygon class="cls-1" points="447.01 334.54 445.39 352.28 445.38 352.37 445.36 352.43 442.05 361.81 442.04 361.84 442.03 361.85 434.56 376.43 441.36 361.53 441.35 361.57 444.23 352.06 444.2 352.2 445.01 334.4 447.01 334.54"/>
    </g>
    <path class="cls-2" d="M1283.82,504.5h-182c-42.32,0-88.29-36.7-88.29-82V158.45c0-45.27,46-82,88.29-82h182c42.32,0,88.29,36.69,88.29,82V422.54C1372.11,467.8,1326.14,504.5,1283.82,504.5Z"/>
    <g id="Layer_2" data-name="Layer 2">
      <g id="refined">
        <path class="cls-2" d="M400.82,338.49H677.1"/>
        <path class="cls-2" d="M637.7,504a.8.8,0,0,1-.53.19"/>
        <path class="cls-2" d="M656.18,81.66l-236,76.68L395.78,387.79s-13,61.81,42,116.12H637.7s49.08-39.65,42.38-126.33S656.18,81.66,656.18,81.66Z"/>
        <line class="cls-2" x1="421.93" y1="484.58" x2="654.9" y2="484.58"/>
      </g>
    </g>
    <g>
      <path class="cls-2" d="M725.63,75.64H976a7,7,0,0,1,7,7V480.5a23.64,23.64,0,0,1-23.64,23.64h-217a23.64,23.64,0,0,1-23.64-23.64V82.62A7,7,0,0,1,725.63,75.64Z"/>
      <path class="cls-2" d="M983,84.24v0H718.65v0a8.58,8.58,0,0,1,8.59-8.59H974.37A8.58,8.58,0,0,1,983,84.24Z"/>
      <path class="cls-2" d="M983,84.24v0H718.65v0a8.58,8.58,0,0,1,8.59-8.59H974.37A8.58,8.58,0,0,1,983,84.24Z"/>
    </g>
    <circle class="cls-3" cx="444.9" cy="301.26" r="36.43"/>
    <circle class="cls-3" cx="754.96" cy="301.26" r="36.43"/>
    <circle class="cls-3" cx="1049.64" cy="301.26" r="36.43"/>
    <path class="cls-3" d="M383.29,289.25c3.87,1.16,2.72-4.61,1.59-5.64-62-56.7-83-131.87-108.41-146.7-28.82-16.82-64.64-1-75.07,36-7.22,25.63,89.1,88.52,159,109.45Z"/>
    <path class="cls-3" d="M355.53,283.49c-65.85-1.78-240,52.06-240,146.26,0,40.73,29.44,45,66.46,34.3,29.47-8.49,161.32-152.65,201.2-175.3,4.37-2.49,2.13-4.46,2.13-4.46Z"/>
    <path class="cls-3" d="M66.19,376.73a39.77,39.77,0,0,1-13.09,5.69c-5.1,1.13-10.25,1.23-15.17-1-6.37-2.84-10.37-7.61-11.46-14.58s1.13-13.09,5.8-18.35a36,36,0,0,1,10.3-7.82,77.11,77.11,0,0,1,22.1-7.36,77.25,77.25,0,0,1,14.54-1.45c3.55,0,7.1.28,10.64.59a71.69,71.69,0,0,1,15.43,3.42,72.7,72.7,0,0,1,14,6.54c1.47.85,2.88,1.81,4.31,2.72l-.12.37a11.84,11.84,0,0,0-1.33.06c-1.26.18-2.51.4-3.77.58-.89.12-1.79.11-2.67.27-5.58,1-10.61,3.41-15.49,6.23a142.61,142.61,0,0,0-15.82,10.88c-2.22,1.73-4.47,3.42-6.79,5Z"/>
    <path class="cls-3" d="M125.89,316.15a20.56,20.56,0,0,1-7.33.45,12.22,12.22,0,0,1-7.17-3.12,9.44,9.44,0,0,1-3-9.06,11.08,11.08,0,0,1,6-7.86,18.42,18.42,0,0,1,6.35-2,43.91,43.91,0,0,1,19.27,2.16c1.71.62,3.38,1.38,5,2.15a36.69,36.69,0,0,1,6.86,4.36,37.13,37.13,0,0,1,5.65,5.63c.56.66,1.07,1.38,1.61,2.07l-.12.15c-.22-.07-.43-.15-.66-.2-.64-.14-1.28-.24-1.92-.38-.45-.1-.89-.26-1.34-.34a25,25,0,0,0-8.58.3A73,73,0,0,0,137,313c-1.38.44-2.77.87-4.17,1.23Z"/>
  </g>
</svg>
