<svg xmlns="http://www.w3.org/2000/svg" viewBox="0 0 1178 654">
  <defs>
    <style>
      .cls-1 {
        fill: #a8a8a8;
      }

      .cls-2 {
        fill: none;
        stroke: #636363;
        stroke-miterlimit: 10;
        stroke-width: 2px;
      }

      .cls-3 {
        fill: #ff0;
      }
    </style>
  </defs>
  <title>Artboard 1</title>
  <g id="Layer_1" data-name="Layer 1">
    <g>
      <polygon class="cls-1" points="761.66 277.04 768.97 270.09 769.68 269.41 770.52 269.84 784.86 277.09 783.22 278.11 783.36 267.53 783.37 267.39 783.39 267.29 787.2 253.23 787.36 252.63 787.97 252.63 820.44 253.08 820.09 253.43 820.29 239.32 820.29 239.17 820.44 239.17 831.26 239.32 820.44 239.47 820.59 239.32 820.78 253.43 820.79 253.77 820.44 253.77 787.97 254.22 788.73 253.62 785.32 267.78 785.35 267.53 785.5 278.11 785.52 279.92 783.86 279.14 769.33 272.28 770.88 272.03 763.76 279.19 761.66 277.04"/>
      <polygon class="cls-1" points="763.54 285.13 793.91 280.84 793.31 281.17 803.7 269.95 803.81 269.82 803.95 269.77 834.45 259.51 804.37 270.94 804.62 270.76 794.82 282.5 794.6 282.76 794.22 282.82 764 288.1 763.54 285.13"/>
      <polygon class="cls-1" points="766.58 292.34 795.95 285.19 796.69 285.01 797.01 285.66 804.69 301.22 803.81 301.01 814.58 293.51 814.68 293.44 814.79 293.44 833.39 293.79 814.79 294.14 814.99 294.08 804.51 301.98 803.96 302.4 803.63 301.77 795.36 286.51 796.42 286.98 767.34 295.24 766.58 292.34"/>
      <polygon class="cls-1" points="770.93 306 805.11 314.86 806.03 315.1 805.72 315.97 800.87 329.21 800.61 328.5 814.99 337.35 815.05 337.38 815.08 337.44 823.44 350.69 814.6 337.75 814.69 337.84 800.01 329.53 799.59 329.3 799.75 328.82 804.1 315.41 804.71 316.52 770.23 308.92 770.93 306"/>
      <polygon class="cls-1" points="761.45 326.61 802.57 357.81 759.71 329.05 761.45 326.61"/>
      <polygon class="cls-1" points="748.13 330.09 771.21 381.94 771.27 382.06 771.27 382.18 770.68 418.94 770.09 382.18 770.14 382.43 745.4 331.36 748.13 330.09"/>
      <polygon class="cls-1" points="732.04 332.13 718.29 350.76 718.48 349.88 721.61 366.69 721.73 367.32 721.18 367.64 701.54 378.89 701.83 378.46 698.99 395.46 698.98 395.5 698.97 395.52 697.34 398.75 698.41 395.3 698.39 395.37 700.63 378.29 700.67 378.01 700.92 377.86 720.27 366.09 719.84 367.04 716.27 350.32 716.17 349.87 716.45 349.45 729.6 330.38 732.04 332.13"/>
      <polygon class="cls-1" points="712.44 320.39 699.97 326.41 699.43 326.67 699.23 326.18 696.28 319.09 700.18 325.7 699.44 325.48 710.95 317.79 712.44 320.39"/>
      <polygon class="cls-1" points="705.87 311.57 697.34 313.37 704.76 308.78 705.87 311.57"/>
      <polygon class="cls-1" points="718.18 329.18 701.59 347.73 715.83 327.31 718.18 329.18"/>
      <polygon class="cls-1" points="704.84 293.35 702.13 290.87 705.79 290.51 704.84 293.35"/>
      <polygon class="cls-1" points="707.44 289.8 702.78 283.84 702.68 283.71 702.67 283.69 701.06 279.18 703.71 283.17 703.6 283.02 709.56 287.68 707.44 289.8"/>
      <polygon class="cls-1" points="714.09 279.21 711.99 271.98 711.96 271.89 710.37 263.73 710.47 263.9 706.83 259.46 711.05 263.35 711.1 263.4 711.14 263.52 713.85 271.39 713.82 271.31 716.9 278.18 714.09 279.21"/>
      <polygon class="cls-1" points="729.65 270.55 717.61 254.51 717.41 254.24 717.42 253.96 717.9 238.31 717.93 238.46 713.29 226.57 718.66 238.15 718.69 238.21 718.69 238.31 719.18 253.96 718.98 253.41 731.99 268.67 729.65 270.55"/>
      <polygon class="cls-1" points="741.04 267.21 743.39 258.12 743.43 257.99 743.43 257.97 745.48 253.48 745.5 253.43 749.42 246.76 746.44 253.9 746.46 253.85 745.05 258.58 745.09 258.43 743.99 267.76 741.04 267.21"/>
      <polygon class="cls-1" points="750.62 269.85 757.71 241.18 757.68 241.43 757.95 220.88 757.95 220.62 758.09 220.43 771.77 200.06 771.84 199.96 771.94 199.9 805.75 179.8 772.48 200.78 772.64 200.63 759.49 221.34 759.63 220.88 759.9 241.43 759.9 241.54 759.87 241.68 753.54 270.53 750.62 269.85"/>
      <polygon class="cls-1" points="752.5 273.39 758.79 257.11 758.88 256.88 759.02 256.78 766.63 251.61 766.61 251.63 770.46 248.13 766.96 251.98 766.95 251.99 766.93 252 759.84 257.87 760.07 257.54 755.34 274.34 752.5 273.39"/>
      <path class="cls-1" d="M734.32,269.84l-3.59-26.26,0-.17,0-.14L733,228.34v.16l-1.23-24.37c-.11-2-.19-4.07-.33-6.1l-.55-6.07-1.11-12.16,1.51,12.12L732,198c.21,2,.35,4.05.53,6.08l2.05,24.33v.17l-1.76,15v-.3l4.47,26.12Z"/>
      <polygon class="cls-1" points="741.11 334.57 739.29 352.3 739.27 352.44 739.25 352.52 735.83 361.86 735.81 361.92 735.8 361.93 728.17 376.43 734.8 361.45 734.77 361.52 737.55 351.96 737.5 352.18 738.12 334.37 741.11 334.57"/>
    </g>
    <g>
      <polygon class="cls-1" points="1053.94 277.04 1061.26 270.09 1061.96 269.41 1062.8 269.84 1077.14 277.09 1075.5 278.11 1075.65 267.53 1075.65 267.39 1075.68 267.29 1079.48 253.23 1079.64 252.63 1080.25 252.63 1112.72 253.08 1112.38 253.43 1112.57 239.32 1112.57 239.17 1112.72 239.17 1123.54 239.32 1112.72 239.47 1112.87 239.32 1113.06 253.43 1113.07 253.77 1112.72 253.77 1080.25 254.22 1081.02 253.62 1077.6 267.78 1077.63 267.53 1077.78 278.11 1077.8 279.92 1076.14 279.14 1061.61 272.28 1063.16 272.03 1056.04 279.19 1053.94 277.04"/>
      <polygon class="cls-1" points="1055.82 285.13 1086.19 280.84 1085.59 281.17 1095.98 269.95 1096.1 269.82 1096.23 269.77 1126.73 259.51 1096.65 270.94 1096.9 270.76 1087.1 282.5 1086.88 282.76 1086.5 282.82 1056.29 288.1 1055.82 285.13"/>
      <polygon class="cls-1" points="1058.86 292.34 1088.23 285.19 1088.97 285.01 1089.3 285.66 1096.97 301.22 1096.09 301.01 1106.86 293.51 1106.96 293.44 1107.07 293.44 1125.67 293.79 1107.07 294.14 1107.28 294.08 1096.79 301.98 1096.25 302.4 1095.91 301.77 1087.65 286.51 1088.71 286.98 1059.62 295.24 1058.86 292.34"/>
      <polygon class="cls-1" points="1063.21 306 1097.39 314.86 1098.32 315.1 1098 315.97 1093.15 329.21 1092.89 328.5 1107.27 337.35 1107.33 337.38 1107.36 337.44 1115.72 350.69 1106.88 337.75 1106.98 337.84 1092.29 329.53 1091.87 329.3 1092.03 328.82 1096.38 315.41 1096.99 316.52 1062.51 308.92 1063.21 306"/>
      <polygon class="cls-1" points="1053.74 326.61 1094.85 357.81 1051.99 329.05 1053.74 326.61"/>
      <polygon class="cls-1" points="1040.41 330.09 1063.5 381.94 1063.55 382.06 1063.55 382.18 1062.96 418.94 1062.37 382.18 1062.43 382.43 1037.69 331.36 1040.41 330.09"/>
      <polygon class="cls-1" points="1024.33 332.13 1010.57 350.76 1010.76 349.88 1013.89 366.69 1013.96 367.04 1013.79 367.32 1006.79 378.68 1006.86 378.46 1004.03 395.46 1004 395.61 1003.88 395.67 992.81 401.94 1003.57 395.15 1003.43 395.37 1005.67 378.29 1005.68 378.18 1005.75 378.07 1012.23 366.41 1012.13 367.04 1008.55 350.32 1008.45 349.87 1008.74 349.45 1021.88 330.38 1024.33 332.13"/>
      <polygon class="cls-1" points="1005.05 320.14 996.68 327.43 995.99 328.03 995.69 327.28 992.81 320.15 996.79 326.73 995.8 326.58 1002.9 318.04 1005.05 320.14"/>
      <polygon class="cls-1" points="998.29 311.51 992.81 312.66 996.91 308.85 998.29 311.51"/>
      <polygon class="cls-1" points="1010.47 329.18 993.88 347.73 1008.11 327.31 1010.47 329.18"/>
      <polygon class="cls-1" points="997.12 293.35 994.41 290.87 998.07 290.51 997.12 293.35"/>
      <polygon class="cls-1" points="999.73 289.8 995.06 283.84 994.96 283.71 994.95 283.69 993.35 279.18 995.99 283.17 995.88 283.02 1001.85 287.68 999.73 289.8"/>
      <polygon class="cls-1" points="1006.37 279.21 1004.27 271.98 1004.24 271.89 1002.65 263.73 1002.75 263.9 999.11 259.46 1003.33 263.35 1003.38 263.4 1003.42 263.52 1006.13 271.39 1006.1 271.31 1009.18 278.18 1006.37 279.21"/>
      <polygon class="cls-1" points="1021.93 270.55 1009.89 254.51 1009.69 254.24 1009.7 253.96 1010.18 238.31 1010.22 238.46 1005.57 226.57 1010.94 238.15 1010.97 238.21 1010.97 238.31 1011.46 253.96 1011.27 253.41 1024.28 268.67 1021.93 270.55"/>
      <polygon class="cls-1" points="1033.32 267.21 1035.68 258.12 1035.71 257.99 1035.72 257.97 1037.76 253.48 1037.78 253.43 1041.7 246.76 1038.72 253.9 1038.74 253.85 1037.33 258.58 1037.37 258.43 1036.27 267.76 1033.32 267.21"/>
      <polygon class="cls-1" points="1042.9 269.85 1049.99 241.18 1049.96 241.43 1050.23 220.88 1050.23 220.62 1050.37 220.43 1064.06 200.06 1064.13 199.96 1064.22 199.9 1098.04 179.8 1064.76 200.78 1064.92 200.63 1051.78 221.34 1051.91 220.88 1052.18 241.43 1052.18 241.54 1052.15 241.68 1045.82 270.53 1042.9 269.85"/>
      <polygon class="cls-1" points="1044.78 273.39 1051.07 257.11 1051.16 256.88 1051.31 256.78 1058.92 251.61 1058.89 251.63 1062.74 248.13 1059.24 251.98 1059.23 251.99 1059.21 252 1052.12 257.87 1052.36 257.54 1047.62 274.34 1044.78 273.39"/>
      <path class="cls-1" d="M1026.6,269.84,1023,243.58l0-.17,0-.14,2.26-14.93v.16L1024,204.13c-.11-2-.19-4.07-.33-6.1l-.55-6.07L1022,179.8l1.51,12.12.76,6.06c.21,2,.35,4.05.53,6.08l2,24.33v.07l0,.1-1.76,15v-.3l4.46,26.12Z"/>
      <polygon class="cls-1" points="1033.39 334.57 1031.57 352.3 1031.56 352.44 1031.53 352.52 1028.11 361.86 1028.09 361.92 1028.08 361.93 1020.45 376.43 1027.08 361.45 1027.05 361.52 1029.83 351.96 1029.79 352.18 1030.4 334.37 1033.39 334.57"/>
    </g>
    <g>
      <polygon class="cls-1" points="447.06 277.04 454.37 270.09 455.08 269.41 455.92 269.84 470.25 277.09 468.62 278.11 468.76 267.53 468.76 267.39 468.79 267.29 472.6 253.23 472.76 252.63 473.36 252.63 505.83 253.08 505.49 253.43 505.69 239.32 505.69 239.17 505.83 239.17 516.66 239.32 505.83 239.47 505.99 239.32 506.18 253.43 506.18 253.77 505.83 253.77 473.36 254.22 474.13 253.62 470.72 267.78 470.75 267.53 470.89 278.11 470.92 279.92 469.25 279.14 454.73 272.28 456.27 272.03 449.15 279.19 447.06 277.04"/>
      <polygon class="cls-1" points="448.94 285.13 479.3 280.84 478.71 281.17 489.09 269.95 489.21 269.82 489.35 269.77 519.85 259.51 489.76 270.94 490.02 270.76 480.21 282.5 479.99 282.76 479.62 282.82 449.4 288.1 448.94 285.13"/>
      <polygon class="cls-1" points="451.98 292.34 481.35 285.19 482.09 285.01 482.41 285.66 490.09 301.22 489.2 301.01 499.98 293.51 500.08 293.44 500.19 293.44 518.78 293.79 500.19 294.14 500.39 294.08 489.91 301.98 489.36 302.4 489.02 301.77 480.76 286.51 481.82 286.98 452.74 295.24 451.98 292.34"/>
      <polygon class="cls-1" points="456.33 306 490.5 314.86 491.43 315.1 491.11 315.97 486.27 329.21 486.01 328.5 500.38 337.35 500.44 337.38 500.48 337.44 508.83 350.69 500 337.75 500.09 337.84 485.4 329.53 484.99 329.3 485.14 328.82 489.5 315.41 490.11 316.52 455.63 308.92 456.33 306"/>
      <polygon class="cls-1" points="446.85 326.61 487.96 357.81 445.11 329.05 446.85 326.61"/>
      <polygon class="cls-1" points="433.52 330.09 456.61 381.94 456.67 382.06 456.67 382.18 456.08 418.94 455.49 382.18 455.54 382.43 430.8 331.36 433.52 330.09"/>
      <polygon class="cls-1" points="417.44 332.13 403.69 350.76 403.87 349.88 407.01 366.69 407.13 367.32 406.58 367.64 386.93 378.89 387.22 378.46 384.39 395.46 384.37 395.61 384.25 395.67 373.18 401.94 383.93 395.15 383.79 395.37 386.03 378.29 386.07 378.01 386.32 377.86 405.67 366.09 405.24 367.04 401.66 350.32 401.56 349.87 401.85 349.45 415 330.38 417.44 332.13"/>
      <polygon class="cls-1" points="397.83 320.39 385.37 326.41 384.83 326.67 384.62 326.18 381.68 319.09 385.58 325.7 384.84 325.48 396.35 317.79 397.83 320.39"/>
      <polygon class="cls-1" points="391.27 311.57 382.74 313.37 390.15 308.78 391.27 311.57"/>
      <polygon class="cls-1" points="403.58 329.18 386.99 347.73 401.23 327.31 403.58 329.18"/>
      <polygon class="cls-1" points="390.24 293.35 387.52 290.87 391.19 290.51 390.24 293.35"/>
      <polygon class="cls-1" points="392.84 289.8 388.18 283.84 388.07 283.71 388.07 283.69 386.46 279.18 389.11 283.17 389 283.02 394.96 287.68 392.84 289.8"/>
      <polygon class="cls-1" points="399.48 279.21 397.38 271.98 397.36 271.89 395.77 263.73 395.87 263.9 392.23 259.46 396.44 263.35 396.5 263.4 396.54 263.52 399.24 271.39 399.22 271.31 402.3 278.18 399.48 279.21"/>
      <polygon class="cls-1" points="415.05 270.55 403.01 254.51 402.81 254.24 402.81 253.96 403.3 238.31 403.33 238.46 398.68 226.57 404.06 238.15 404.09 238.21 404.09 238.31 404.57 253.96 404.38 253.41 417.39 268.67 415.05 270.55"/>
      <polygon class="cls-1" points="426.44 267.21 428.79 258.12 428.83 257.99 428.83 257.97 430.87 253.48 430.9 253.43 434.82 246.76 431.84 253.9 431.86 253.85 430.45 258.58 430.49 258.43 429.39 267.76 426.44 267.21"/>
      <polygon class="cls-1" points="436.02 269.85 443.1 241.18 443.07 241.43 443.35 220.88 443.35 220.62 443.48 220.43 457.17 200.06 457.24 199.96 457.33 199.9 491.15 179.8 457.88 200.78 458.04 200.63 444.89 221.34 445.03 220.88 445.3 241.43 445.3 241.54 445.27 241.68 438.94 270.53 436.02 269.85"/>
      <polygon class="cls-1" points="437.89 273.39 444.19 257.11 444.27 256.88 444.42 256.78 452.03 251.61 452.01 251.63 455.86 248.13 452.35 251.98 452.35 251.99 452.33 252 445.24 257.87 445.47 257.54 440.74 274.34 437.89 273.39"/>
      <path class="cls-1" d="M419.72,269.84l-3.6-26.26,0-.17,0-.14,2.27-14.93v.16l-1.24-24.37c-.11-2-.18-4.07-.32-6.1l-.56-6.07-1.1-12.16,1.51,12.12.75,6.06c.21,2,.35,4.05.53,6.08L420,228.39v.17l-1.77,15v-.3l4.47,26.12Z"/>
      <polygon class="cls-1" points="426.5 334.57 424.69 352.3 424.67 352.44 424.64 352.52 421.23 361.86 421.21 361.92 421.2 361.93 413.56 376.43 420.2 361.45 420.17 361.52 422.94 351.96 422.9 352.18 423.51 334.37 426.5 334.57"/>
    </g>
    <path class="cls-2" d="M1262.82,504.5h-182c-42.32,0-88.29-36.7-88.29-82V158.45c0-45.27,46-82,88.29-82h182c42.32,0,88.29,36.69,88.29,82V422.54C1351.11,467.8,1305.14,504.5,1262.82,504.5Z"/>
    <g id="Layer_2" data-name="Layer 2">
      <g id="refined">
        <path class="cls-2" d="M379.82,338.49H656.1"/>
        <path class="cls-2" d="M616.7,504a.8.8,0,0,1-.53.19"/>
        <path class="cls-2" d="M635.18,81.66l-236,76.68L374.78,387.79s-13,61.81,42,116.12H616.7s49.08-39.65,42.38-126.33S635.18,81.66,635.18,81.66Z"/>
        <line class="cls-2" x1="400.93" y1="484.58" x2="633.9" y2="484.58"/>
      </g>
    </g>
    <g>
      <path class="cls-2" d="M704.63,75.64H955a7,7,0,0,1,7,7V480.5a23.64,23.64,0,0,1-23.64,23.64h-217a23.64,23.64,0,0,1-23.64-23.64V82.62A7,7,0,0,1,704.63,75.64Z"/>
      <path class="cls-2" d="M962,84.24v0H697.65v0a8.58,8.58,0,0,1,8.59-8.59H953.37A8.58,8.58,0,0,1,962,84.24Z"/>
      <path class="cls-2" d="M962,84.24v0H697.65v0a8.58,8.58,0,0,1,8.59-8.59H953.37A8.58,8.58,0,0,1,962,84.24Z"/>
    </g>
    <circle class="cls-3" cx="423.9" cy="301.26" r="36.43"/>
    <circle class="cls-3" cx="733.96" cy="301.26" r="36.43"/>
    <circle class="cls-3" cx="1028.64" cy="301.26" r="36.43"/>
    <path class="cls-3" d="M334.53,283.49c-65.85-1.78-240,52.06-240,146.26,0,40.73,29.44,45,66.46,34.3,29.47-8.49,161.32-152.65,201.2-175.3,4.37-2.49,2.13-4.46,2.13-4.46Z"/>
    <path class="cls-3" d="M45.19,376.73a39.77,39.77,0,0,1-13.09,5.69c-5.1,1.13-10.25,1.23-15.17-1-6.37-2.84-10.37-7.61-11.46-14.58s1.13-13.09,5.8-18.35a36,36,0,0,1,10.3-7.82,77.11,77.11,0,0,1,22.1-7.36,77.25,77.25,0,0,1,14.54-1.45c3.55,0,7.1.28,10.64.59a71.69,71.69,0,0,1,15.43,3.42,72.7,72.7,0,0,1,14,6.54c1.47.85,2.88,1.81,4.31,2.72l-.12.37a11.84,11.84,0,0,0-1.33.06c-1.26.18-2.51.4-3.77.58-.89.12-1.79.11-2.67.27-5.58,1-10.61,3.41-15.49,6.23a142.61,142.61,0,0,0-15.82,10.88c-2.22,1.73-4.47,3.42-6.79,5Z"/>
    <path class="cls-3" d="M104.89,316.15a20.56,20.56,0,0,1-7.33.45,12.22,12.22,0,0,1-7.17-3.12,9.44,9.44,0,0,1-3-9.06,11.08,11.08,0,0,1,6-7.86,18.42,18.42,0,0,1,6.35-2,43.91,43.91,0,0,1,19.27,2.16c1.71.62,3.38,1.38,5,2.15a36.69,36.69,0,0,1,6.86,4.36,37.13,37.13,0,0,1,5.65,5.63c.56.66,1.07,1.38,1.61,2.07l-.12.15c-.22-.07-.43-.15-.66-.2-.64-.14-1.28-.24-1.92-.38-.45-.1-.89-.26-1.34-.34a25,25,0,0,0-8.58.3A73,73,0,0,0,116,313c-1.38.44-2.77.87-4.17,1.23Z"/>
  </g>
</svg>
