<svg xmlns="http://www.w3.org/2000/svg" viewBox="0 0 1920 654">
  <defs>
    <style>
      .cls-1 {
        fill: #a8a8a8;
      }

      .cls-2 {
        fill: none;
        stroke: #636363;
        stroke-miterlimit: 10;
      }

      .cls-3 {
        fill: #ff0;
      }
    </style>
  </defs>
  <title>HackerSticker</title>
  <g id="Layer_1" data-name="Layer 1">
    <g>
      <polygon class="cls-1" points="1504.01 277.4 1511.29 270.41 1511.76 269.96 1512.32 270.25 1526.69 277.43 1525.6 278.11 1525.69 267.53 1525.69 267.44 1525.71 267.37 1529.45 253.3 1529.56 252.9 1529.96 252.9 1562.44 253.2 1562.21 253.43 1562.34 239.32 1562.34 239.22 1562.44 239.22 1573.26 239.32 1562.44 239.42 1562.54 239.32 1562.67 253.43 1562.67 253.65 1562.44 253.66 1529.96 253.96 1530.48 253.56 1527 267.7 1527.02 267.53 1527.12 278.11 1527.13 279.32 1526.02 278.8 1511.53 271.88 1512.56 271.71 1505.41 278.83 1504.01 277.4"/>
      <polygon class="cls-1" points="1505.62 285.63 1535.96 281.17 1535.56 281.39 1545.85 270.08 1545.93 270 1546.02 269.97 1576.45 259.51 1546.3 270.74 1546.47 270.63 1536.56 282.28 1536.41 282.45 1536.17 282.5 1505.93 287.6 1505.62 285.63"/>
      <polygon class="cls-1" points="1508.7 292.82 1538.03 285.49 1538.52 285.37 1538.74 285.8 1546.51 301.31 1545.92 301.17 1556.65 293.6 1556.71 293.56 1556.79 293.56 1575.39 293.79 1556.79 294.03 1556.92 293.98 1546.39 301.82 1546.03 302.1 1545.8 301.68 1537.64 286.37 1538.35 286.68 1509.21 294.76 1508.7 292.82"/>
      <polygon class="cls-1" points="1512.81 306.49 1547.04 315.13 1547.66 315.29 1547.45 315.88 1542.68 329.15 1542.51 328.68 1556.94 337.43 1556.98 337.45 1557 337.49 1565.44 350.69 1556.68 337.7 1556.74 337.76 1542.11 329.36 1541.83 329.2 1541.93 328.89 1546.37 315.5 1546.78 316.24 1512.35 308.44 1512.81 306.49"/>
      <polygon class="cls-1" points="1503.16 327.01 1544.57 357.81 1502 328.64 1503.16 327.01"/>
      <polygon class="cls-1" points="1489.67 330.3 1513.04 382.02 1513.07 382.1 1513.07 382.18 1512.68 418.94 1512.29 382.18 1512.32 382.35 1487.86 331.15 1489.67 330.3"/>
      <polygon class="cls-1" points="1473.64 331.84 1459.98 350.54 1460.11 349.96 1463.32 366.74 1463.4 367.17 1463.03 367.38 1443.43 378.72 1443.63 378.44 1440.89 395.44 1440.89 395.47 1440.88 395.49 1439.34 398.75 1440.5 395.33 1440.49 395.38 1442.83 378.32 1442.86 378.13 1443.03 378.03 1462.42 366.34 1462.14 366.98 1458.63 350.25 1458.57 349.94 1458.76 349.67 1472.01 330.68 1473.64 331.84"/>
      <polygon class="cls-1" points="1454.19 319.96 1441.88 326.25 1441.53 326.43 1441.39 326.1 1438.28 319.09 1442.02 325.78 1441.53 325.63 1453.19 318.22 1454.19 319.96"/>
      <polygon class="cls-1" points="1447.69 311.11 1439.34 313.37 1446.94 309.25 1447.69 311.11"/>
      <polygon class="cls-1" points="1459.79 328.87 1443.59 347.73 1458.22 327.63 1459.79 328.87"/>
      <polygon class="cls-1" points="1447 292.88 1444.13 290.87 1447.63 290.98 1447 292.88"/>
      <polygon class="cls-1" points="1449.8 289.45 1444.91 283.7 1444.85 283.63 1444.84 283.6 1443.06 279.18 1445.54 283.25 1445.46 283.15 1451.21 288.04 1449.8 289.45"/>
      <polygon class="cls-1" points="1456.55 279.04 1454.29 271.87 1454.27 271.81 1452.5 263.69 1452.56 263.81 1448.83 259.46 1452.95 263.44 1452.99 263.48 1453.01 263.56 1455.53 271.47 1455.51 271.42 1458.43 278.35 1456.55 279.04"/>
      <polygon class="cls-1" points="1472.04 270.24 1459.84 254.32 1459.71 254.15 1459.71 253.96 1460.03 238.31 1460.05 238.41 1455.29 226.57 1460.54 238.2 1460.56 238.25 1460.56 238.31 1460.88 253.96 1460.75 253.59 1473.6 268.99 1472.04 270.24"/>
      <polygon class="cls-1" points="1483.53 267.3 1485.68 258.17 1485.69 258.09 1485.7 258.07 1487.64 253.54 1487.65 253.51 1487.65 253.51 1491.42 246.76 1488.28 253.82 1488.3 253.79 1486.78 258.48 1486.81 258.38 1485.5 267.67 1483.53 267.3"/>
      <polygon class="cls-1" points="1493.11 269.96 1500.07 241.26 1500.05 241.43 1500.23 220.88 1500.23 220.71 1500.32 220.58 1513.92 200.15 1513.96 200.09 1514.03 200.05 1547.75 179.8 1514.39 200.64 1514.5 200.53 1501.26 221.19 1501.35 220.88 1501.53 241.43 1501.53 241.51 1501.51 241.6 1495.05 270.41 1493.11 269.96"/>
      <polygon class="cls-1" points="1494.97 273.55 1501 257.18 1501.06 257.03 1501.16 256.96 1508.68 251.68 1508.67 251.69 1512.46 248.13 1508.9 251.92 1508.89 251.93 1508.88 251.94 1501.7 257.68 1501.86 257.46 1496.87 274.18 1494.97 273.55"/>
      <path class="cls-1" d="M1476.82,269.76l-3.74-26.24,0-.1v-.1l2.18-14.94v.1l-1.37-24.37c-.12-2-.21-4.06-.36-6.09l-.59-6.07-1.17-12.15,1.44,12.12.72,6.07c.2,2,.33,4,.5,6.08l1.91,24.34v.11l-1.84,15v-.2l4.32,26.15Z"/>
      <polygon class="cls-1" points="1482.61 334.54 1480.99 352.28 1480.98 352.37 1480.96 352.43 1477.65 361.81 1477.64 361.84 1477.63 361.85 1470.17 376.43 1476.97 361.53 1476.95 361.57 1479.83 352.06 1479.8 352.2 1480.61 334.4 1482.61 334.54"/>
    </g>
    <g>
      <polygon class="cls-1" points="1796.29 277.4 1803.57 270.41 1804.04 269.96 1804.61 270.25 1818.97 277.43 1817.88 278.11 1817.98 267.53 1817.98 267.44 1818 267.37 1821.73 253.3 1821.84 252.9 1822.25 252.9 1854.72 253.2 1854.49 253.43 1854.62 239.32 1854.62 239.22 1854.72 239.22 1865.54 239.32 1854.72 239.42 1854.82 239.32 1854.95 253.43 1854.95 253.65 1854.72 253.66 1822.25 253.96 1822.76 253.56 1819.28 267.7 1819.3 267.53 1819.4 278.11 1819.41 279.32 1818.31 278.8 1803.81 271.88 1804.84 271.71 1797.69 278.83 1796.29 277.4"/>
      <polygon class="cls-1" points="1797.9 285.63 1828.24 281.17 1827.84 281.39 1838.13 270.08 1838.21 270 1838.3 269.97 1868.73 259.51 1838.58 270.74 1838.75 270.63 1828.85 282.28 1828.7 282.45 1828.45 282.5 1798.21 287.6 1797.9 285.63"/>
      <polygon class="cls-1" points="1800.99 292.82 1830.31 285.49 1830.8 285.37 1831.02 285.8 1838.8 301.31 1838.21 301.17 1848.93 293.6 1849 293.56 1849.07 293.56 1867.67 293.79 1849.07 294.03 1849.21 293.98 1838.68 301.82 1838.31 302.1 1838.09 301.68 1829.92 286.37 1830.63 286.68 1801.5 294.76 1800.99 292.82"/>
      <polygon class="cls-1" points="1805.1 306.49 1839.32 315.13 1839.94 315.29 1839.73 315.88 1834.97 329.15 1834.79 328.68 1849.22 337.43 1849.26 337.45 1849.28 337.49 1857.72 350.69 1848.96 337.7 1849.02 337.76 1834.39 329.36 1834.11 329.2 1834.21 328.89 1838.65 315.5 1839.06 316.24 1804.63 308.44 1805.1 306.49"/>
      <polygon class="cls-1" points="1795.45 327.01 1836.85 357.81 1794.28 328.64 1795.45 327.01"/>
      <polygon class="cls-1" points="1781.95 330.3 1805.32 382.02 1805.36 382.1 1805.36 382.18 1804.96 418.94 1804.57 382.18 1804.61 382.35 1780.14 331.15 1781.95 330.3"/>
      <polygon class="cls-1" points="1765.92 331.84 1752.27 350.54 1752.39 349.96 1755.6 366.74 1755.64 366.98 1755.53 367.17 1748.61 378.58 1748.66 378.44 1745.93 395.44 1745.91 395.54 1745.83 395.59 1734.81 401.94 1745.62 395.24 1745.53 395.38 1747.87 378.32 1747.88 378.25 1747.92 378.17 1754.49 366.56 1754.42 366.98 1750.92 350.25 1750.85 349.94 1751.04 349.67 1764.29 330.68 1765.92 331.84"/>
      <polygon class="cls-1" points="1746.69 319.79 1738.53 327.29 1738.09 327.69 1737.87 327.19 1734.81 320.15 1738.61 326.82 1737.95 326.72 1745.26 318.39 1746.69 319.79"/>
      <polygon class="cls-1" points="1740.06 311.06 1734.81 312.66 1739.14 309.29 1740.06 311.06"/>
      <polygon class="cls-1" points="1752.07 328.87 1735.88 347.73 1750.5 327.63 1752.07 328.87"/>
      <polygon class="cls-1" points="1739.28 292.88 1736.41 290.87 1739.91 290.98 1739.28 292.88"/>
      <polygon class="cls-1" points="1742.08 289.45 1737.2 283.7 1737.14 283.63 1737.13 283.6 1735.35 279.18 1737.82 283.25 1737.74 283.15 1743.49 288.04 1742.08 289.45"/>
      <polygon class="cls-1" points="1748.84 279.04 1746.57 271.87 1746.56 271.81 1744.78 263.69 1744.85 263.81 1741.11 259.46 1745.23 263.44 1745.27 263.48 1745.3 263.56 1747.81 271.47 1747.8 271.42 1750.71 278.35 1748.84 279.04"/>
      <polygon class="cls-1" points="1764.32 270.24 1752.12 254.32 1751.99 254.15 1751.99 253.96 1752.32 238.31 1752.34 238.41 1747.57 226.57 1752.82 238.2 1752.84 238.25 1752.84 238.31 1753.16 253.96 1753.04 253.59 1765.89 268.99 1764.32 270.24"/>
      <polygon class="cls-1" points="1775.81 267.3 1777.96 258.17 1777.98 258.09 1777.99 258.07 1779.92 253.54 1779.94 253.51 1779.94 253.51 1783.7 246.76 1780.57 253.82 1780.58 253.79 1779.06 258.48 1779.09 258.38 1777.78 267.67 1775.81 267.3"/>
      <polygon class="cls-1" points="1785.39 269.96 1792.35 241.26 1792.33 241.43 1792.51 220.88 1792.51 220.71 1792.6 220.58 1806.2 200.15 1806.24 200.09 1806.31 200.05 1840.04 179.8 1806.67 200.64 1806.78 200.53 1793.54 221.19 1793.63 220.88 1793.81 241.43 1793.81 241.51 1793.79 241.6 1787.34 270.41 1785.39 269.96"/>
      <polygon class="cls-1" points="1787.25 273.55 1793.29 257.18 1793.34 257.03 1793.44 256.96 1800.97 251.68 1800.95 251.69 1804.74 248.13 1801.18 251.92 1801.18 251.93 1801.16 251.94 1793.98 257.68 1794.14 257.46 1789.15 274.18 1787.25 273.55"/>
      <path class="cls-1" d="M1769.1,269.76l-3.74-26.24,0-.1,0-.1,2.18-14.94v.1l-1.37-24.37c-.12-2-.2-4.06-.36-6.09l-.59-6.07L1764,179.8l1.44,12.12.72,6.07c.2,2,.33,4,.5,6.08l1.91,24.34v.11l-1.85,15v-.2l4.32,26.15Z"/>
      <polygon class="cls-1" points="1774.89 334.54 1773.28 352.28 1773.27 352.37 1773.25 352.43 1769.93 361.81 1769.92 361.84 1769.92 361.85 1762.45 376.43 1769.25 361.53 1769.23 361.57 1772.11 352.06 1772.09 352.2 1772.9 334.4 1774.89 334.54"/>
    </g>
    <g>
      <polygon class="cls-1" points="1189.41 277.4 1196.69 270.41 1197.16 269.96 1197.72 270.25 1212.09 277.43 1210.99 278.11 1211.09 267.53 1211.09 267.44 1211.11 267.37 1214.85 253.3 1214.96 252.9 1215.36 252.9 1247.84 253.2 1247.61 253.43 1247.74 239.32 1247.74 239.22 1247.84 239.22 1258.66 239.32 1247.84 239.42 1247.93 239.32 1248.07 253.43 1248.07 253.65 1247.84 253.66 1215.36 253.96 1215.87 253.56 1212.4 267.7 1212.42 267.53 1212.51 278.11 1212.53 279.32 1211.42 278.8 1196.92 271.88 1197.96 271.71 1190.81 278.83 1189.41 277.4"/>
      <polygon class="cls-1" points="1191.01 285.63 1221.36 281.17 1220.96 281.39 1231.25 270.08 1231.32 270 1231.42 269.97 1261.85 259.51 1231.69 270.74 1231.87 270.63 1221.96 282.28 1221.81 282.45 1221.56 282.5 1191.33 287.6 1191.01 285.63"/>
      <polygon class="cls-1" points="1194.1 292.82 1223.43 285.49 1223.92 285.37 1224.13 285.8 1231.91 301.31 1231.32 301.17 1242.05 293.6 1242.11 293.56 1242.18 293.56 1260.79 293.79 1242.18 294.03 1242.32 293.98 1231.79 301.82 1231.42 302.1 1231.2 301.68 1223.04 286.37 1223.74 286.68 1194.61 294.76 1194.1 292.82"/>
      <polygon class="cls-1" points="1198.21 306.49 1232.44 315.13 1233.05 315.29 1232.85 315.88 1228.08 329.15 1227.91 328.68 1242.33 337.43 1242.37 337.45 1242.4 337.49 1250.84 350.69 1242.08 337.7 1242.14 337.76 1227.5 329.36 1227.23 329.2 1227.33 328.89 1231.77 315.5 1232.17 316.24 1197.74 308.44 1198.21 306.49"/>
      <polygon class="cls-1" points="1188.56 327.01 1229.96 357.81 1187.4 328.64 1188.56 327.01"/>
      <polygon class="cls-1" points="1175.07 330.3 1198.43 382.02 1198.47 382.1 1198.47 382.18 1198.08 418.94 1197.68 382.18 1197.72 382.35 1173.26 331.15 1175.07 330.3"/>
      <polygon class="cls-1" points="1159.04 331.84 1145.38 350.54 1145.51 349.96 1148.71 366.74 1148.79 367.17 1148.43 367.38 1128.83 378.72 1129.02 378.44 1126.29 395.44 1126.27 395.54 1126.19 395.59 1115.17 401.94 1125.98 395.24 1125.89 395.38 1128.23 378.32 1128.26 378.13 1128.42 378.03 1147.82 366.34 1147.53 366.98 1144.03 350.25 1143.97 349.94 1144.16 349.67 1157.41 330.68 1159.04 331.84"/>
      <polygon class="cls-1" points="1139.59 319.96 1127.28 326.25 1126.93 326.43 1126.78 326.1 1123.68 319.09 1127.42 325.78 1126.93 325.63 1138.59 318.22 1139.59 319.96"/>
      <polygon class="cls-1" points="1133.08 311.11 1124.74 313.37 1132.34 309.25 1133.08 311.11"/>
      <polygon class="cls-1" points="1145.19 328.87 1128.99 347.73 1143.62 327.63 1145.19 328.87"/>
      <polygon class="cls-1" points="1132.4 292.88 1129.52 290.87 1133.03 290.98 1132.4 292.88"/>
      <polygon class="cls-1" points="1135.19 289.45 1130.31 283.7 1130.25 283.63 1130.24 283.6 1128.46 279.18 1130.93 283.25 1130.86 283.15 1136.61 288.04 1135.19 289.45"/>
      <polygon class="cls-1" points="1141.95 279.04 1139.69 271.87 1139.67 271.81 1137.9 263.69 1137.96 263.81 1134.22 259.46 1138.35 263.44 1138.39 263.48 1138.41 263.56 1140.93 271.47 1140.91 271.42 1143.83 278.35 1141.95 279.04"/>
      <polygon class="cls-1" points="1157.44 270.24 1145.24 254.32 1145.1 254.15 1145.11 253.96 1145.43 238.31 1145.45 238.41 1140.68 226.57 1145.94 238.2 1145.96 238.25 1145.96 238.31 1146.28 253.96 1146.15 253.59 1159 268.99 1157.44 270.24"/>
      <polygon class="cls-1" points="1168.93 267.3 1171.08 258.17 1171.09 258.09 1171.1 258.07 1173.04 253.54 1173.05 253.51 1173.05 253.51 1176.82 246.76 1173.68 253.82 1173.69 253.79 1172.18 258.48 1172.2 258.38 1170.89 267.67 1168.93 267.3"/>
      <polygon class="cls-1" points="1178.5 269.96 1185.46 241.26 1185.45 241.43 1185.63 220.88 1185.63 220.71 1185.72 220.58 1199.32 200.15 1199.36 200.09 1199.42 200.05 1233.15 179.8 1199.79 200.64 1199.89 200.53 1186.66 221.19 1186.75 220.88 1186.93 241.43 1186.93 241.51 1186.91 241.6 1180.45 270.41 1178.5 269.96"/>
      <polygon class="cls-1" points="1180.37 273.55 1186.4 257.18 1186.45 257.03 1186.56 256.96 1194.08 251.68 1194.07 251.69 1197.86 248.13 1194.3 251.92 1194.29 251.93 1194.28 251.94 1187.1 257.68 1187.26 257.46 1182.26 274.18 1180.37 273.55"/>
      <path class="cls-1" d="M1162.21,269.76l-3.74-26.24v-.2l2.18-14.94v.1l-1.37-24.37c-.12-2-.21-4.06-.36-6.09l-.59-6.07-1.17-12.15,1.44,12.12.72,6.07c.2,2,.33,4,.5,6.08l1.91,24.34v.11l-1.85,15v-.2l4.32,26.15Z"/>
      <polygon class="cls-1" points="1168.01 334.54 1166.39 352.28 1166.38 352.37 1166.36 352.43 1163.05 361.81 1163.04 361.84 1163.03 361.85 1155.56 376.43 1162.36 361.53 1162.35 361.57 1165.23 352.06 1165.2 352.2 1166.01 334.4 1168.01 334.54"/>
    </g>
    <path class="cls-2" d="M2004.82,504.5h-182c-42.32,0-88.29-36.7-88.29-82V158.45c0-45.27,46-82,88.29-82h182c42.32,0,88.29,36.69,88.29,82V422.54C2093.11,467.8,2047.14,504.5,2004.82,504.5Z"/>
    <g id="Layer_2" data-name="Layer 2">
      <g id="refined">
        <path class="cls-2" d="M1121.82,338.49H1398.1"/>
        <path class="cls-2" d="M1358.7,504a.8.8,0,0,1-.53.19"/>
        <path class="cls-2" d="M1377.18,81.66l-236,76.68-24.39,229.45s-13,61.81,42,116.12H1358.7s49.08-39.65,42.38-126.33S1377.18,81.66,1377.18,81.66Z"/>
        <line class="cls-2" x1="1142.93" y1="484.58" x2="1375.9" y2="484.58"/>
      </g>
    </g>
    <g>
      <path class="cls-2" d="M1446.63,75.64H1697a7,7,0,0,1,7,7V480.5a23.64,23.64,0,0,1-23.64,23.64h-217a23.64,23.64,0,0,1-23.64-23.64V82.62A7,7,0,0,1,1446.63,75.64Z"/>
      <path class="cls-2" d="M1704,84.24v0H1439.65v0a8.58,8.58,0,0,1,8.59-8.59h247.13A8.58,8.58,0,0,1,1704,84.24Z"/>
      <path class="cls-2" d="M1704,84.24v0H1439.65v0a8.58,8.58,0,0,1,8.59-8.59h247.13A8.58,8.58,0,0,1,1704,84.24Z"/>
    </g>
    <circle class="cls-3" cx="1165.9" cy="301.26" r="36.43"/>
    <circle class="cls-3" cx="1475.96" cy="301.26" r="36.43"/>
    <circle class="cls-3" cx="1770.64" cy="301.26" r="36.43"/>
    <path class="cls-3" d="M1076.53,283.49c-65.85-1.78-240,52.06-240,146.26,0,40.73,29.44,45,66.46,34.3,29.47-8.49,161.32-152.65,201.2-175.3,4.37-2.49,2.13-4.46,2.13-4.46Z"/>
    <path class="cls-3" d="M787.19,376.73a39.77,39.77,0,0,1-13.09,5.69c-5.1,1.13-10.25,1.23-15.17-1-6.37-2.84-10.37-7.61-11.46-14.58s1.13-13.09,5.8-18.35a36,36,0,0,1,10.3-7.82,85.54,85.54,0,0,1,36.64-8.81c3.55,0,7.1.28,10.64.59a71.69,71.69,0,0,1,15.43,3.42,72.7,72.7,0,0,1,14.05,6.54c1.47.85,2.88,1.81,4.31,2.72l-.12.37a11.84,11.84,0,0,0-1.33.06c-1.26.18-2.51.4-3.77.58-.89.12-1.79.11-2.67.27-5.58,1-10.61,3.41-15.49,6.23a142.61,142.61,0,0,0-15.82,10.88c-2.22,1.73-4.47,3.42-6.79,5Z"/>
    <path class="cls-3" d="M846.89,316.15a20.56,20.56,0,0,1-7.33.45,12.22,12.22,0,0,1-7.17-3.12,9.44,9.44,0,0,1-3-9.06,11.08,11.08,0,0,1,6-7.86,18.42,18.42,0,0,1,6.35-2,43.91,43.91,0,0,1,19.27,2.16c1.71.62,3.38,1.38,5,2.15a36.69,36.69,0,0,1,6.86,4.36,37.13,37.13,0,0,1,5.65,5.63c.56.66,1.07,1.38,1.61,2.07l-.12.15c-.22-.07-.43-.15-.66-.2-.64-.14-1.28-.24-1.92-.38-.45-.1-.89-.26-1.34-.34a25,25,0,0,0-8.58.3A73,73,0,0,0,858,313c-1.38.44-2.77.87-4.17,1.23Z"/>
  </g>
</svg>
